500 0 5 0 
58 PRO/ENGINEER BY PARAMETRIC TECHNOLOGY CORPORATION, 2018500 8 ACIS 7.0 24
Thu Apr 23 07:07:34 2020 
1 0.002 1e-10 
-0 body $-1 $-1 $-1 $5 #
-1 body $-1 $-1 $-1 $6 #
-2 body $-1 $-1 $-1 $7 #
-3 body $-1 $8 $-1 $9 #
-4 body $-1 $10 $-1 $11 #
-5 transform $-1 1 0 0 0 1 0 0 0 1 0 0 0 1 rotate no_reflect no_shear #
-6 transform $-1 1 0 0 0 1 0 0 0 1 0 0 0 1 rotate no_reflect no_shear #
-7 transform $-1 1 0 0 0 1 0 0 0 1 0 0 0 1 rotate no_reflect no_shear #
-8 lump $-1 $-1 $12 $3 #
-9 transform $-1 1 0 0 0 1 0 0 0 1 0 0 0 1 rotate no_reflect no_shear #
-10 lump $-1 $-1 $13 $4 #
-11 transform $-1 1 0 0 0 1 0 0 0 1 0 0 0 1 rotate no_reflect no_shear #
-12 shell $-1 $-1 $-1 $14 $-1 $8 #
-13 shell $-1 $-1 $-1 $15 $-1 $10 #
-14 face $16 $17 $18 $12 $-1 $19 forward single #
-15 face $20 $21 $22 $13 $-1 $23 forward single #
-16 rgb_color-st-attrib $-1 $-1 $-1 $14 0 0.75294131040573098
0.80000001192092896 #
-17 face $24 $25 $26 $12 $-1 $27 forward single #
-18 loop $-1 $-1 $28 $14 #
-19 cone-surface $-1 -616.24999991528284 -443.99999997709159 124.93900000000008
0 0 -1 1.4999999733794198 6.5588559060005558e-17 0 1 I I 0 1 1 forward I I I I
#
-20 rgb_color-st-attrib $-1 $-1 $-1 $15 0 0.75294131040573098
0.80000001192092896 #
-21 face $29 $30 $31 $13 $-1 $32 forward single #
-22 loop $-1 $-1 $33 $15 #
-23 cone-surface $-1 -612.94799991528282 -443.99999997696966 124.93900000000008
0 0 -1 1.4999999733794198 6.5588559060005558e-17 0 1 I I 0 1 1 forward I I I I
#
-24 rgb_color-st-attrib $-1 $-1 $-1 $17 0 0.75294131040573098
0.80000001192092896 #
-25 face $34 $35 $36 $12 $-1 $37 forward single #
-26 loop $-1 $-1 $38 $17 #
-27 spline-surface $-1 forward { exactsur full nubs 3 3 open open none none 2 2
-0.032372643245524586 3 1.0301635984207078 3 -0.55033033358314865 3
0.55048066191446821 3 -616.80033032419408 -442.60951649202678 125.1599105233956
-616.8003303241951 -442.54155022093403 125.18668308153016 -616.8003303242009
-442.49711984963113 125.24021486201332 -616.8003303242026 -442.50013792225877
125.31023720297038 -616.43339332569485 -442.60951649354615 125.15991052374142
-616.43339332569587 -442.5415502224534 125.18668308187598 -616.43339332570167
-442.4971198511505 125.24021486235914 -616.43339332570338 -442.50013792377814
125.31023720331621 -616.06645632719562 -442.60951649506552 125.15991052408724
-616.06645632719665 -442.54155022397276 125.1866830822218 -616.06645632720245
-442.49711985266993 125.24021486270497 -616.06645632720415 -442.50013792529757
125.31023720366204 -615.6995193286964 -442.60951649658489 125.15991052443306
-615.69951932869742 -442.54155022549213 125.18668308256763 -615.69951932870322
-442.49711985418929 125.2402148630508 -615.69951932870492 -442.50013792681693
125.31023720400786 0 0 0 0 0 0 0 F -0.032372643245524586 F 1.0301635984207078 F
-0.55033033358314865 F 0.55048066191446821 } I I I I #
-28 coedge $-1 $39 $40 $41 $42 forward $18 $-1 #
-29 rgb_color-st-attrib $-1 $-1 $-1 $21 0 0.75294131040573098
0.80000001192092896 #
-30 face $43 $44 $45 $13 $-1 $46 forward single #
-31 loop $-1 $-1 $47 $21 #
-32 spline-surface $-1 forward { exactsur full nubs 3 3 open open none none 2 2
-0.032372643245524586 3 1.0301635984207078 3 -0.55033033358314865 3
0.55048066191446821 3 -613.49833032419406 -442.60951649190486 125.1599105233956
-613.49833032419508 -442.5415502208121 125.18668308153016 -613.49833032420088
-442.4971198495092 125.24021486201332 -613.49833032420258 -442.50013792213684
125.31023720297038 -613.13139332569483 -442.60951649342422 125.15991052374142
-613.13139332569585 -442.54155022233147 125.18668308187598 -613.13139332570165
-442.49711985102857 125.24021486235914 -613.13139332570336 -442.50013792365621
125.31023720331621 -612.7644563271956 -442.60951649494359 125.15991052408724
-612.76445632719663 -442.54155022385083 125.1866830822218 -612.76445632720242
-442.497119852548 125.24021486270497 -612.76445632720413 -442.50013792517564
125.31023720366204 -612.39751932869638 -442.60951649646296 125.15991052443306
-612.3975193286974 -442.5415502253702 125.18668308256763 -612.3975193287032
-442.49711985406736 125.2402148630508 -612.3975193287049 -442.500137926695
125.31023720400786 0 0 0 0 0 0 0 F -0.032372643245524586 F 1.0301635984207078 F
-0.55033033358314865 F 0.55048066191446821 } I I I I #
-33 coedge $-1 $48 $49 $50 $51 forward $22 $-1 #
-34 rgb_color-st-attrib $-1 $-1 $-1 $25 0 0.75294131040573098
0.80000001192092896 #
-35 face $52 $53 $54 $12 $-1 $55 forward single #
-36 loop $-1 $-1 $56 $25 #
-37 plane-surface $-1 -620.74999991528068 -443.10000000337737 125.0000000010502
8.6274226241449274e-12 0.31086362369151588 -0.95045452677410058 -1
-4.3725706813495024e-17 -9.0771545414454643e-12 forward_v F -5.2799999999598919
F -3.7200000010796574 F -0.013342262883227308 F 0.53586020733214901 #
-38 coedge $-1 $57 $58 $59 $60 reversed $26 $-1 #
-39 coedge $-1 $40 $28 $61 $62 reversed $18 $-1 #
-40 coedge $-1 $28 $39 $63 $64 forward $18 $-1 #
-41 coedge $-1 $65 $66 $28 $42 reversed $67 $-1 #
-42 edge $68 $69 0 $70 0.50845737383455447 $41 $71 forward 7 unknown #
-43 rgb_color-st-attrib $-1 $-1 $-1 $30 0 0.75294131040573098
0.80000001192092896 #
-44 face $72 $73 $74 $13 $-1 $75 forward single #
-45 loop $-1 $-1 $76 $30 #
-46 plane-surface $-1 -617.44799991528066 -443.10000000325545 125.0000000010502
8.6274226241449274e-12 0.31086362369151588 -0.95045452677410058 -1
-4.3725706813495024e-17 -9.0771545414454643e-12 forward_v F -5.2799999999598919
F -3.7200000010796574 F -0.013342262883227308 F 0.53586020733214901 #
-47 coedge $-1 $77 $78 $79 $80 reversed $31 $-1 #
-48 coedge $-1 $49 $33 $81 $82 reversed $22 $-1 #
-49 coedge $-1 $33 $48 $83 $84 forward $22 $-1 #
-50 coedge $-1 $85 $86 $33 $51 reversed $87 $-1 #
-51 edge $88 $89 0 $90 0.50845737383466505 $50 $91 forward 7 unknown #
-52 rgb_color-st-attrib $-1 $-1 $-1 $35 0 0.75294131040573098
0.80000001192092896 #
-53 face $92 $93 $94 $12 $-1 $95 reversed single #
-54 loop $-1 $-1 $96 $35 #
-55 plane-surface $-1 -640 -449.99999999999989 125.00000000000009 0 0 -1 0 -1 0
forward_v F -7.1079999994362248 F 3.708000001641377 F -24.530000084006481 F
-22.970000084955277 #
-56 coedge $-1 $97 $98 $99 $100 reversed $36 $-1 #
-57 coedge $-1 $63 $38 $101 $102 reversed $26 $-1 #
-58 coedge $-1 $38 $103 $104 $105 forward $26 $-1 #
-59 coedge $-1 $106 $107 $38 $60 forward $108 $-1 #
-60 edge $109 $110 0 $111 0.055700386994302298 $59 $112 forward 7 unknown #
-61 coedge $-1 $113 $114 $39 $62 forward $115 $-1 #
-62 edge $116 $117 0 $70 1 $61 $118 forward 7 unknown #
-63 coedge $-1 $103 $57 $40 $64 reversed $26 $-1 #
-64 edge $119 $117 0 $69 0.50803856192134544 $63 $120 forward 7 unknown #
-65 coedge $-1 $121 $41 $122 $123 reversed $67 $-1 #
-66 coedge $-1 $41 $124 $113 $125 reversed $67 $-1 #
-67 loop $-1 $-1 $65 $126 #
-68 ptlist-eye-attrib $-1 $-1 $-1 $42 #
-69 vertex $-1 $64 $127 #
-70 vertex $-1 $62 $128 #
-71 intcurve-curve $-1 forward { exactcur full nubs 3 open 6 0 3
0.097071517451321115 1 0.20093989368099588 1 0.30555549706037982 1
0.40849857783613097 1 0.50845737383455447 3 -616.2517155151786
-442.49999764025068 125.30498360601963 -616.22129484303252 -442.499934620793
125.31600927361286 -616.15802657278164 -442.50181856978048 125.33811830843388
-616.06064737167344 -442.51086287745471 125.36690475945549 -615.96147123772016
-442.52686251108122 125.39341300071577 -615.86405438489703 -442.54936748117785
125.41640555884571 -615.80046697930857 -442.56856862822303 125.42950518582077
-615.76939984225476 -442.57907649874807 125.43538849335837 0 null_surface
null_surface nullbs nullbs I I 0 0 0 I I } I I #
-72 rgb_color-st-attrib $-1 $-1 $-1 $44 0 0.75294131040573098
0.80000001192092896 #
-73 face $129 $130 $131 $13 $-1 $132 reversed single #
-74 loop $-1 $-1 $133 $44 #
-75 plane-surface $-1 -636.69799999999998 -449.99999999987796
125.00000000000009 0 0 -1 0 -1 0 forward_v F -7.1079999994362248 F
3.708000001641377 F -24.530000084006481 F -22.970000084955277 #
-76 coedge $-1 $134 $135 $136 $137 reversed $45 $-1 #
-77 coedge $-1 $83 $47 $138 $139 reversed $31 $-1 #
-78 coedge $-1 $47 $140 $141 $142 forward $31 $-1 #
-79 coedge $-1 $143 $144 $47 $80 forward $145 $-1 #
-80 edge $146 $147 0 $148 0.05570038699435137 $79 $149 forward 7 unknown #
-81 coedge $-1 $150 $151 $48 $82 forward $152 $-1 #
-82 edge $153 $154 0 $90 1 $81 $155 forward 7 unknown #
-83 coedge $-1 $140 $77 $49 $84 reversed $31 $-1 #
-84 edge $156 $154 0 $89 0.50803856192136165 $83 $157 forward 7 unknown #
-85 coedge $-1 $158 $50 $159 $160 reversed $87 $-1 #
-86 coedge $-1 $50 $161 $150 $162 reversed $87 $-1 #
-87 loop $-1 $-1 $85 $163 #
-88 ptlist-eye-attrib $-1 $-1 $-1 $51 #
-89 vertex $-1 $84 $164 #
-90 vertex $-1 $82 $165 #
-91 intcurve-curve $-1 forward { exactcur full nubs 3 open 6 0 3
0.097071517451431721 1 0.20093989368110649 1 0.30555549706049046 1
0.40849857783624155 1 0.50845737383466505 3 -612.9497155151787
-442.49999764012864 125.30498360601963 -612.91929484303262 -442.49993462067096
125.31600927361288 -612.8560265727815 -442.50181856965838 125.33811830843382
-612.75864737167331 -442.5108628773329 125.36690475945554 -612.65947123772025
-442.52686251095923 125.39341300071575 -612.56205438489701 -442.54936748105592
125.41640555884574 -612.49846697930855 -442.5685686281011 125.42950518582077
-612.46739984225474 -442.57907649862614 125.43538849335837 0 null_surface
null_surface nullbs nullbs I I 0 0 0 I I } I I #
-92 rgb_color-st-attrib $-1 $-1 $-1 $53 0 0.75294131040573098
0.80000001192092896 #
-93 face $166 $167 $168 $12 $-1 $169 forward single #
-94 loop $-1 $-1 $170 $53 #
-95 plane-surface $-1 -615.49999991544485 -443.1000000024934 124.93900000000008
-1 1.0201336956507521e-10 0 0 0 1 forward_v F 0.047657734801291936 F
0.68434226519870811 F -10.60799999911211 F 0.20799999998259039 #
-96 coedge $-1 $171 $172 $173 $174 reversed $54 $-1 #
-97 coedge $-1 $104 $56 $106 $175 reversed $36 $-1 #
-98 coedge $-1 $56 $176 $177 $178 forward $36 $-1 #
-99 coedge $-1 $179 $180 $56 $100 forward $181 $-1 #
-100 edge $182 $183 0 $184 1 $99 $185 forward 7 unknown #
-101 coedge $-1 $186 $122 $57 $102 forward $187 $-1 #
-102 edge $188 $69 0 $110 0.50482604829477762 $101 $189 forward 7 unknown #
-103 coedge $-1 $58 $63 $114 $190 reversed $26 $-1 #
-104 coedge $-1 $191 $97 $58 $105 reversed $36 $-1 #
-105 edge $192 $193 0 $111 1 $104 $194 forward 7 unknown #
-106 coedge $-1 $195 $59 $97 $175 forward $108 $-1 #
-107 coedge $-1 $59 $196 $186 $197 reversed $108 $-1 #
-108 loop $-1 $-1 $106 $198 #
-109 ptlist-eye-attrib $-1 $-1 $-1 $60 #
-110 vertex $-1 $102 $199 #
-111 vertex $-1 $105 $200 #
-112 intcurve-curve $-1 forward { exactcur full nubs 3 open 4 0 3
0.018209995698247917 1 0.036802821057805586 1 0.055700386994302298 3
-616.73060031887064 -442.57925235039738 125.17450892181259 -616.73625620821804
-442.58115619853061 125.17339934506067 -616.74748425111306 -442.58550716705463
125.17094826916015 -616.76372722656572 -442.59355101978201 125.16682189930255
-616.77409603946523 -442.59992586312131 125.16390234323372 -616.77916084865444
-442.60337043486061 125.16243182937734 0 null_surface null_surface nullbs
nullbs I I 0 0 0 I I } I I #
-113 coedge $-1 $201 $61 $66 $125 forward $115 $-1 #
-114 coedge $-1 $61 $202 $103 $190 forward $115 $-1 #
-115 loop $-1 $-1 $61 $203 #
-116 ptlist-eye-attrib $-1 $-1 $-1 $62 #
-117 vertex $-1 $64 $204 #
-118 straight-curve $-1 -615.76939951162944 -442.57907662530079
125.1746114556141 -3.3062531201721868e-07 1.2655272030315246e-07
0.26077703774427619 F 0 F 1 #
-119 ptlist-eye-attrib $-1 $-1 $-1 $64 #
-120 intcurve-curve $-1 forward { exactcur full nubs 3 open 4 0 3
0.17380389165464916 1 0.34321824663001743 1 0.50803856192134544 3
-615.76939951162944 -442.57907662530079 125.1746114556141 -615.82328716351617
-442.56085014798026 125.18558131959509 -615.93143636690115 -442.53104596780577
125.20976142242968 -616.09298203264461 -442.50539141264858 125.25488726859567
-616.19947376098708 -442.49988941624423 125.28797764957346 -616.25171551517849
-442.49999764025063 125.30498360601965 0 null_surface null_surface nullbs
nullbs I I 0 0 0 I I } I I #
-121 coedge $-1 $124 $65 $196 $205 reversed $67 $-1 #
-122 coedge $-1 $101 $186 $65 $123 forward $187 $-1 #
-123 edge $206 $207 0 $69 0.50483977135984981 $65 $208 forward 7 unknown #
-124 coedge $-1 $66 $121 $209 $210 forward $67 $-1 #
-125 edge $211 $70 0 $212 0.055926394216024911 $113 $213 forward 7 unknown #
-126 face $214 $203 $67 $12 $-1 $215 forward single #
-127 point $-1 -616.25171551517849 -442.49999764025063 125.30498360601965 #
-128 point $-1 -615.76939984225476 -442.57907649874807 125.43538849335837 #
-129 rgb_color-st-attrib $-1 $-1 $-1 $73 0 0.75294131040573098
0.80000001192092896 #
-130 face $216 $217 $218 $13 $-1 $219 forward single #
-131 loop $-1 $-1 $220 $73 #
-132 plane-surface $-1 -612.19799991544483 -443.10000000237147
124.93900000000008 -1 1.0201336956507521e-10 0 0 0 1 forward_v F
0.047657734801291936 F 0.68434226519870811 F -10.60799999911211 F
0.20799999998259039 #
-133 coedge $-1 $221 $222 $223 $224 reversed $74 $-1 #
-134 coedge $-1 $141 $76 $143 $225 reversed $45 $-1 #
-135 coedge $-1 $76 $226 $227 $228 forward $45 $-1 #
-136 coedge $-1 $229 $230 $76 $137 forward $231 $-1 #
-137 edge $232 $233 0 $234 1 $136 $235 forward 7 unknown #
-138 coedge $-1 $236 $159 $77 $139 forward $237 $-1 #
-139 edge $238 $89 0 $147 0.50482604829490074 $138 $239 forward 7 unknown #
-140 coedge $-1 $78 $83 $151 $240 reversed $31 $-1 #
-141 coedge $-1 $241 $134 $78 $142 reversed $45 $-1 #
-142 edge $242 $243 0 $148 1 $141 $244 forward 7 unknown #
-143 coedge $-1 $245 $79 $134 $225 forward $145 $-1 #
-144 coedge $-1 $79 $246 $236 $247 reversed $145 $-1 #
-145 loop $-1 $-1 $143 $248 #
-146 ptlist-eye-attrib $-1 $-1 $-1 $80 #
-147 vertex $-1 $139 $249 #
-148 vertex $-1 $142 $250 #
-149 intcurve-curve $-1 forward { exactcur full nubs 3 open 4 0 3
0.018209995698268037 1 0.036802821057825702 1 0.05570038699435137 3
-613.42860031887062 -442.5792523502754 125.17450892181259 -613.43425620821802
-442.58115619840862 125.17339934506067 -613.44548425111304 -442.58550716693287
125.17094826916016 -613.46172722656536 -442.5935510196598 125.16682189930252
-613.47209603946521 -442.59992586299944 125.16390234323372 -613.47716084865442
-442.60337043473874 125.16243182937734 0 null_surface null_surface nullbs
nullbs I I 0 0 0 I I } I I #
-150 coedge $-1 $251 $81 $86 $162 forward $152 $-1 #
-151 coedge $-1 $81 $252 $140 $240 forward $152 $-1 #
-152 loop $-1 $-1 $81 $253 #
-153 ptlist-eye-attrib $-1 $-1 $-1 $82 #
-154 vertex $-1 $84 $254 #
-155 straight-curve $-1 -612.46739951162942 -442.5790766251788
125.1746114556141 -3.3062531201721868e-07 1.2655266345973359e-07
0.26077703774427619 F 0 F 1 #
-156 ptlist-eye-attrib $-1 $-1 $-1 $84 #
-157 intcurve-curve $-1 forward { exactcur full nubs 3 open 4 0 3
0.17380389165455687 1 0.34321824662992512 1 0.50803856192136165 3
-612.46739951162954 -442.57907662517891 125.1746114556141 -612.52128716351626
-442.56085014785839 125.18558131959509 -612.62943636690125 -442.53104596768384
125.20976142242969 -612.79098203264425 -442.50539141252659 125.25488726859565
-612.89747376098717 -442.4998894161223 125.28797764957345 -612.94971551517858
-442.4999976401287 125.30498360601965 0 null_surface null_surface nullbs nullbs
I I 0 0 0 I I } I I #
-158 coedge $-1 $161 $85 $246 $255 reversed $87 $-1 #
-159 coedge $-1 $138 $236 $85 $160 forward $237 $-1 #
-160 edge $256 $257 0 $89 0.50483977135997704 $85 $258 forward 7 unknown #
-161 coedge $-1 $86 $158 $259 $260 forward $87 $-1 #
-162 edge $261 $90 0 $262 0.055926394216053943 $150 $263 forward 7 unknown #
-163 face $264 $253 $87 $13 $-1 $265 forward single #
-164 point $-1 -612.94971551517858 -442.4999976401287 125.30498360601965 #
-165 point $-1 -612.46739984225474 -442.57907649862614 125.43538849335837 #
-166 rgb_color-st-attrib $-1 $-1 $-1 $93 0 0.75294131040573098
0.80000001192092896 #
-167 face $266 $267 $268 $12 $-1 $269 reversed single #
-168 loop $-1 $-1 $173 $93 #
-169 plane-surface $-1 -610.19999991609234 -453.50000000163965
126.61000000000008 -3.1546886923366206e-12 -1 0 -1 3.1546449666298042e-12 0
forward_v F 5.2700000004227787 F 6.8299999999353274 F 0.98665773480129182 F
1.6233422651987082 #
-170 coedge $-1 $270 $271 $172 $272 reversed $94 $-1 #
-171 coedge $-1 $177 $96 $273 $274 forward $54 $-1 #
-172 coedge $-1 $96 $177 $170 $272 forward $54 $-1 #
-173 coedge $-1 $275 $276 $96 $174 forward $168 $-1 #
-174 edge $277 $278 0 $279 1 $173 $280 forward 7 unknown #
-175 edge $281 $111 0 $183 0.12842330894455886 $106 $282 forward 7 unknown #
-176 coedge $-1 $98 $191 $283 $284 reversed $36 $-1 #
-177 coedge $-1 $172 $171 $98 $178 reversed $54 $-1 #
-178 edge $285 $286 0 $184 1 $177 $287 forward 7 unknown #
-179 coedge $-1 $288 $99 $289 $290 forward $181 $-1 #
-180 coedge $-1 $99 $288 $195 $291 reversed $181 $-1 #
-181 loop $-1 $-1 $179 $267 #
-182 ptlist-eye-attrib $-1 $-1 $-1 $100 #
-183 vertex $-1 $175 $292 #
-184 vertex $-1 $178 $293 #
-185 straight-curve $-1 -616.85445878902237 -442.70012904639594
125.13078514776494 -0.14554112531516239 -0.3998709542826191
-0.13078514680731246 F 0 F 1 #
-186 coedge $-1 $122 $101 $107 $197 forward $187 $-1 #
-187 loop $-1 $-1 $186 $294 #
-188 ptlist-eye-attrib $-1 $-1 $-1 $102 #
-189 intcurve-curve $-1 forward { exactcur full nubs 3 open 4 0 3
0.17244686898831102 1 0.34061162894649122 1 0.50482604829477762 3
-616.2517155151786 -442.49999764025063 125.30498360601965 -616.30647705196179
-442.50003350187825 125.2875082969246 -616.41434833414087 -442.50613134593749
125.25168559730972 -616.57519138311591 -442.53279961796744 125.20864447172723
-616.67963705401462 -442.56199422395514 125.18456708535301 -616.73060031887053
-442.57925235039738 125.17450892181259 0 null_surface null_surface nullbs
nullbs I I 0 0 0 I I } I I #
-190 edge $295 $193 0 $117 0.055930298673441042 $114 $296 forward 7 unknown #
-191 coedge $-1 $176 $104 $202 $297 reversed $36 $-1 #
-192 ptlist-eye-attrib $-1 $-1 $-1 $105 #
-193 vertex $-1 $105 $298 #
-194 straight-curve $-1 -615.72068996760083 -442.60337054193025
125.16243184335693 -1.0584708810534948 1.0706963848861051e-07
-1.3979615687276237e-08 F 0 F 1 #
-195 coedge $-1 $299 $106 $180 $291 forward $108 $-1 #
-196 coedge $-1 $107 $299 $121 $205 forward $108 $-1 #
-197 edge $300 $110 0 $207 1 $186 $301 forward 7 unknown #
-198 face $302 $294 $108 $12 $-1 $303 forward single #
-199 point $-1 -616.73060031887064 -442.57925235039738 125.17450892181259 #
-200 point $-1 -616.77916084865444 -442.60337043486061 125.16243182937734 #
-201 coedge $-1 $304 $113 $305 $306 forward $115 $-1 #
-202 coedge $-1 $114 $304 $191 $297 forward $115 $-1 #
-203 face $307 $308 $115 $12 $-1 $309 forward single #
-204 point $-1 -615.76939951162944 -442.57907662530079 125.1746114556141 #
-205 edge $310 $311 0 $207 0.055693967886872767 $121 $312 forward 7 unknown #
-206 ptlist-eye-attrib $-1 $-1 $-1 $123 #
-207 vertex $-1 $197 $313 #
-208 intcurve-curve $-1 forward { exactcur full nubs 3 open 4 0 3
0.17004396876569269 1 0.33834655420094595 1 0.50483977135984981 3
-616.73060031906925 -442.57925235046105 125.43549107500337 -616.67782787792009
-442.56138156717054 125.42507584922951 -616.57138268421988 -442.53185422798151
125.40075269538559 -616.41062664376147 -442.50583333838972 125.35697827657543
-616.30458611574477 -442.50003015458225 125.32185658970927 -616.25171551517872
-442.49999764025063 125.30498360601963 0 null_surface null_surface nullbs
nullbs I I 0 0 0 I I } I I #
-209 coedge $-1 $314 $305 $124 $210 reversed $315 $-1 #
-210 edge $316 $311 0 $212 1 $209 $317 forward 7 unknown #
-211 ptlist-eye-attrib $-1 $-1 $-1 $125 #
-212 vertex $-1 $125 $318 #
-213 intcurve-curve $-1 forward { exactcur full nubs 3 open 4 0 3
0.01828726089558327 1 0.036956427497378527 1 0.055926394216024911 3
-615.76939984225476 -442.57907649874807 125.43538849335837 -615.76372399840909
-442.58099624527233 125.43650991311121 -615.75245838381363 -442.58538160412365
125.43898510596529 -615.73616690773656 -442.59348382139314 125.44314655816987
-615.7257703990598 -442.59990148155077 125.44608729035235 -615.72069359802254
-442.60336842825205 125.44756741735478 0 null_surface null_surface nullbs
nullbs I I 0 0 0 I I } I I #
-214 rgb_color-st-attrib $-1 $-1 $-1 $126 0 0.75294131040573098
0.80000001192092896 #
-215 spline-surface $-1 forward { exactsur full nubs 3 3 open open none none 2
2 -0.029351971895751734 3 1.032665179434143 3 -0.55032542065636036 3
0.55047334840009099 3 -616.80032532296832 -442.50013487034852
125.29983395003175 -616.80032532296468 -442.49714909380594 125.36984149273744
-616.80032532296241 -442.54159875904224 125.42335670403429 -616.80032532296843
-442.60957502131032 125.45011252245658 -616.43339239994953 -442.50013487269047
125.29983394875882 -616.43339239994589 -442.49714909614789 125.3698414914645
-616.43339239994361 -442.54159876138419 125.42335670276135 -616.43339239994964
-442.60957502365227 125.45011252118364 -616.06645947693073 -442.50013487503247
125.29983394748589 -616.06645947692709 -442.4971490984899 125.36984149019158
-616.06645947692471 -442.5415987637262 125.42335670148842 -616.06645947693073
-442.60957502599427 125.4501125199107 -615.69952655391194 -442.50013487737442
125.29983394621296 -615.6995265539083 -442.49714910083185 125.36984148891864
-615.69952655390591 -442.54159876606815 125.42335670021548 -615.69952655391194
-442.60957502833622 125.45011251863777 0 0 0 0 0 0 0 F -0.029351971895751734 F
1.032665179434143 F -0.55032542065636036 F 0.55047334840009099 } I I I I #
-216 rgb_color-st-attrib $-1 $-1 $-1 $130 0 0.75294131040573098
0.80000001192092896 #
-217 face $319 $320 $321 $13 $-1 $322 reversed single #
-218 loop $-1 $-1 $223 $130 #
-219 plane-surface $-1 -606.89799991609232 -453.50000000151772
126.61000000000008 -3.1546886923366206e-12 -1 0 -1 3.1546449666298042e-12 0
forward_v F 5.2700000004227787 F 6.8299999999353274 F 0.98665773480129182 F
1.6233422651987082 #
-220 coedge $-1 $323 $324 $222 $325 reversed $131 $-1 #
-221 coedge $-1 $227 $133 $326 $327 forward $74 $-1 #
-222 coedge $-1 $133 $227 $220 $325 forward $74 $-1 #
-223 coedge $-1 $328 $329 $133 $224 forward $218 $-1 #
-224 edge $330 $331 0 $332 1 $223 $333 forward 7 unknown #
-225 edge $334 $148 0 $233 0.12842330894452283 $143 $335 forward 7 unknown #
-226 coedge $-1 $135 $241 $336 $337 reversed $45 $-1 #
-227 coedge $-1 $222 $221 $135 $228 reversed $74 $-1 #
-228 edge $338 $339 0 $234 1 $227 $340 forward 7 unknown #
-229 coedge $-1 $341 $136 $342 $343 forward $231 $-1 #
-230 coedge $-1 $136 $341 $245 $344 reversed $231 $-1 #
-231 loop $-1 $-1 $229 $320 #
-232 ptlist-eye-attrib $-1 $-1 $-1 $137 #
-233 vertex $-1 $225 $345 #
-234 vertex $-1 $228 $346 #
-235 straight-curve $-1 -613.55245878902235 -442.70012904627401
125.13078514776494 -0.14554112531516239 -0.3998709542826191
-0.13078514680731246 F 0 F 1 #
-236 coedge $-1 $159 $138 $144 $247 forward $237 $-1 #
-237 loop $-1 $-1 $236 $347 #
-238 ptlist-eye-attrib $-1 $-1 $-1 $139 #
-239 intcurve-curve $-1 forward { exactcur full nubs 3 open 4 0 3
0.17244686898841924 1 0.34061162894659941 1 0.50482604829490074 3
-612.94971551517858 -442.4999976401287 125.30498360601965 -613.00447705196177
-442.50003350175632 125.2875082969246 -613.11234833414096 -442.5061313458155
125.25168559730974 -613.273191383116 -442.53279961784546 125.20864447172721
-613.37763705401471 -442.56199422383327 125.18456708535301 -613.42860031887062
-442.57925235027551 125.17450892181259 0 null_surface null_surface nullbs
nullbs I I 0 0 0 I I } I I #
-240 edge $348 $243 0 $154 0.055930298673524684 $151 $349 forward 7 unknown #
-241 coedge $-1 $226 $141 $252 $350 reversed $45 $-1 #
-242 ptlist-eye-attrib $-1 $-1 $-1 $142 #
-243 vertex $-1 $142 $351 #
-244 straight-curve $-1 -612.41868996760081 -442.60337054180837
125.16243184335693 -1.0584708810536085 1.0706963848861051e-07
-1.3979615687276237e-08 F 0 F 1 #
-245 coedge $-1 $352 $143 $230 $344 forward $145 $-1 #
-246 coedge $-1 $144 $352 $158 $255 forward $145 $-1 #
-247 edge $353 $147 0 $257 1 $236 $354 forward 7 unknown #
-248 face $355 $347 $145 $13 $-1 $356 forward single #
-249 point $-1 -613.42860031887062 -442.5792523502754 125.17450892181259 #
-250 point $-1 -613.47716084865442 -442.60337043473874 125.16243182937734 #
-251 coedge $-1 $357 $150 $358 $359 forward $152 $-1 #
-252 coedge $-1 $151 $357 $241 $350 forward $152 $-1 #
-253 face $360 $361 $152 $13 $-1 $362 forward single #
-254 point $-1 -612.46739951162954 -442.57907662517891 125.1746114556141 #
-255 edge $363 $364 0 $257 0.055693967886852644 $158 $365 forward 7 unknown #
-256 ptlist-eye-attrib $-1 $-1 $-1 $160 #
-257 vertex $-1 $247 $366 #
-258 intcurve-curve $-1 forward { exactcur full nubs 3 open 4 0 3
0.17004396876560052 1 0.3383465542008538 1 0.50483977135997704 3
-613.42860031906923 -442.57925235033917 125.43549107500337 -613.37582787792007
-442.56138156704867 125.42507584922951 -613.26938268421998 -442.53185422785953
125.40075269538556 -613.10862664376157 -442.50583333826779 125.3569782765754
-613.00258611574475 -442.50003015446026 125.3218565897093 -612.94971551517858
-442.49999764012864 125.30498360601963 0 null_surface null_surface nullbs
nullbs I I 0 0 0 I I } I I #
-259 coedge $-1 $367 $358 $161 $260 reversed $368 $-1 #
-260 edge $369 $364 0 $262 1 $259 $370 forward 7 unknown #
-261 ptlist-eye-attrib $-1 $-1 $-1 $162 #
-262 vertex $-1 $162 $371 #
-263 intcurve-curve $-1 forward { exactcur full nubs 3 open 4 0 3
0.01828726089558327 1 0.036956427497378527 1 0.055926394216053943 3
-612.46739984225474 -442.57907649862614 125.43538849335837 -612.46172399840907
-442.5809962451504 125.43650991311121 -612.45045838381361 -442.58538160400173
125.43898510596529 -612.43416690773665 -442.59348382127121 125.4431465581699
-612.42377039905978 -442.5999014814289 125.44608729035235 -612.41869359802251
-442.60336842813018 125.44756741735478 0 null_surface null_surface nullbs
nullbs I I 0 0 0 I I } I I #
-264 rgb_color-st-attrib $-1 $-1 $-1 $163 0 0.75294131040573098
0.80000001192092896 #
-265 spline-surface $-1 forward { exactsur full nubs 3 3 open open none none 2
2 -0.029351971895751734 3 1.032665179434143 3 -0.55032542065636036 3
0.55047334840009099 3 -613.4983253229683 -442.50013487022659 125.29983395003175
-613.49832532296466 -442.49714909368402 125.36984149273744 -613.49832532296239
-442.54159875892032 125.42335670403429 -613.49832532296841 -442.60957502118839
125.45011252245658 -613.1313923999495 -442.50013487256854 125.29983394875882
-613.13139239994587 -442.49714909602596 125.3698414914645 -613.13139239994359
-442.54159876126226 125.42335670276135 -613.13139239994962 -442.60957502353034
125.45011252118364 -612.76445947693071 -442.50013487491054 125.29983394748589
-612.76445947692707 -442.49714909836797 125.36984149019158 -612.76445947692469
-442.54159876360427 125.42335670148842 -612.76445947693071 -442.60957502587235
125.4501125199107 -612.39752655391192 -442.50013487725249 125.29983394621296
-612.39752655390828 -442.49714910070992 125.36984148891864 -612.39752655390589
-442.54159876594622 125.42335670021548 -612.39752655391192 -442.60957502821429
125.45011251863777 0 0 0 0 0 0 0 F -0.029351971895751734 F 1.032665179434143 F
-0.55032542065636036 F 0.55047334840009099 } I I I I #
-266 rgb_color-st-attrib $-1 $-1 $-1 $167 0 0.75294131040573098
0.80000001192092896 #
-267 face $372 $198 $181 $12 $-1 $373 reversed single #
-268 loop $-1 $-1 $374 $167 #
-269 plane-surface $-1 -616.9999999160932 -453.80000000245491
124.93900000000008 1 -1.8731118195935118e-10 0 0 0 -1 forward_v F
-0.68434226519870811 F -0.047657734801291936 F 0.092000000813483807 F
10.908000002022264 #
-270 coedge $-1 $375 $170 $376 $377 forward $94 $-1 #
-271 coedge $-1 $170 $375 $275 $378 forward $94 $-1 #
-272 edge $379 $286 0 $279 1 $170 $380 forward 7 unknown #
-273 coedge $-1 $381 $289 $171 $274 reversed $268 $-1 #
-274 edge $382 $278 0 $184 1 $273 $383 forward 7 unknown #
-275 coedge $-1 $384 $173 $271 $378 reversed $168 $-1 #
-276 coedge $-1 $173 $384 $381 $385 reversed $168 $-1 #
-277 ptlist-eye-attrib $-1 $-1 $-1 $174 #
-278 vertex $-1 $274 $386 #
-279 vertex $-1 $272 $387 #
-280 straight-curve $-1 -616.99999991571235 -453.50000000161896
125.00000000000009 1.4999999993834763 -3.1832314562052488e-12 0 F 0 F 1 #
-281 ptlist-eye-attrib $-1 $-1 $-1 $175 #
-282 intcurve-curve $-1 forward { exactcur full nubs 3 open 4 0 3
0.042055309670802378 1 0.084881215807840665 1 0.12842330894455886 3
-616.77916084865433 -442.60337043486066 125.16243182937731 -616.79056129128628
-442.61112386466198 125.15989592764159 -616.81189090443775 -442.62914525499025
125.15400170193288 -616.83752568808677 -442.66205362169427 125.14323841517572
-616.84971375040084 -442.68709215997393 125.13504910110585 -616.85445878902237
-442.70012904639589 125.13078514776494 0 null_surface null_surface nullbs
nullbs I I 0 0 0 I I } I I #
-283 coedge $-1 $388 $376 $176 $284 forward $389 $-1 #
-284 edge $390 $286 0 $391 1 $283 $392 forward 7 unknown #
-285 ptlist-eye-attrib $-1 $-1 $-1 $178 #
-286 vertex $-1 $178 $393 #
-287 straight-curve $-1 -615.49999991540312 -443.10000000163677
125.00000000081764 -1.4999999989344133 9.581526683177799e-10
1.3997691894473974e-10 F 0 F 1 #
-288 coedge $-1 $180 $179 $394 $395 forward $181 $-1 #
-289 coedge $-1 $273 $374 $179 $290 reversed $268 $-1 #
-290 edge $396 $184 0 $397 1 $179 $398 forward 7 unknown #
-291 edge $399 $183 0 $400 1 $195 $401 forward 7 unknown #
-292 point $-1 -616.85445878902237 -442.70012904639589 125.13078514776494 #
-293 point $-1 -616.99999991433754 -443.10000000067856 125.0000000009576 #
-294 face $402 $126 $187 $12 $-1 $403 forward single #
-295 ptlist-eye-attrib $-1 $-1 $-1 $190 #
-296 intcurve-curve $-1 forward { exactcur full nubs 3 open 4 0 3
0.018973410169965368 1 0.037642918859468445 1 0.055930298673441042 3
-615.72068996760083 -442.6033705419303 125.16243184335693 -615.7257677051158
-442.59990296231871 125.16391217942129 -615.73616527328795 -442.59348475385559
125.16685336941228 -615.75245786730829 -442.58538179835722 125.17101483148856
-615.76372362989957 -442.58099638463869 125.17349003406973 -615.76939951162944
-442.57907662530079 125.1746114556141 0 null_surface null_surface nullbs nullbs
I I 0 0 0 I I } I I #
-297 edge $404 $391 0 $193 0.12832187745136037 $202 $405 forward 7 unknown #
-298 point $-1 -615.72068996760083 -442.60337054193025 125.16243184335693 #
-299 coedge $-1 $196 $195 $314 $406 forward $108 $-1 #
-300 ptlist-eye-attrib $-1 $-1 $-1 $197 #
-301 straight-curve $-1 -616.73060031887064 -442.57925235039738
125.17450892181259 -1.986109054996632e-10 -6.3664629124104977e-11
0.26098215319078122 F 0 F 1 #
-302 rgb_color-st-attrib $-1 $-1 $-1 $198 0 0.75294131040573098
0.80000001192092896 #
-303 cone-surface $-1 -616.66693694090623 -442.76838141762147
124.93900000000008 0 0 -1 0.19955658269978499 8.7257526283348852e-18 0 1 I I 0
1 1 forward I I I I #
-304 coedge $-1 $202 $201 $388 $407 forward $115 $-1 #
-305 coedge $-1 $209 $408 $201 $306 reversed $315 $-1 #
-306 edge $409 $212 0 $410 0.12832607700231813 $305 $411 forward 7 unknown #
-307 rgb_color-st-attrib $-1 $-1 $-1 $203 0 0.75294131040573098
0.80000001192092896 #
-308 face $412 $413 $389 $12 $-1 $414 reversed single #
-309 cone-surface $-1 -615.83347956196599 -442.76853307405946
124.93900000000008 0 0 -1 0.19999999722914696 8.7451412420437246e-18 0 1 I I 0
1 1 forward I I I I #
-310 ptlist-eye-attrib $-1 $-1 $-1 $205 #
-311 vertex $-1 $205 $415 #
-312 intcurve-curve $-1 forward { exactcur full nubs 3 open 4 0 3
0.018896306037211937 1 0.037486642794215139 1 0.055693967886872767 3
-616.77915560192798 -442.60336694678119 125.44756692398224 -616.77409100387138
-442.59992278401569 125.44609652395414 -616.76372309734745 -442.5935487494329
125.4431773683926 -616.74748185824501 -442.58550621029417 125.43905126176924
-616.73625537892281 -442.58115591937553 125.43660048916291 -616.73060031906925
-442.57925235046105 125.43549107500337 0 null_surface null_surface nullbs
nullbs I I 0 0 0 I I } I I #
-313 point $-1 -616.73060031906925 -442.57925235046105 125.43549107500337 #
-314 coedge $-1 $394 $209 $299 $406 reversed $315 $-1 #
-315 loop $-1 $-1 $394 $413 #
-316 ptlist-eye-attrib $-1 $-1 $-1 $210 #
-317 straight-curve $-1 -616.77915560192798 -442.60336694678119
125.44756692398227 1.0584620039054471 -1.4814708606536442e-06
4.9337251084580203e-07 F 0 F 1 #
-318 point $-1 -615.72069359802254 -442.60336842825205 125.44756741735478 #
-319 rgb_color-st-attrib $-1 $-1 $-1 $217 0 0.75294131040573098
0.80000001192092896 #
-320 face $416 $248 $231 $13 $-1 $417 reversed single #
-321 loop $-1 $-1 $418 $217 #
-322 plane-surface $-1 -613.69799991609318 -453.80000000233298
124.93900000000008 1 -1.8731118195935118e-10 0 0 0 -1 forward_v F
-0.68434226519870811 F -0.047657734801291936 F 0.092000000813483807 F
10.908000002022264 #
-323 coedge $-1 $419 $220 $420 $421 forward $131 $-1 #
-324 coedge $-1 $220 $419 $328 $422 forward $131 $-1 #
-325 edge $423 $339 0 $332 1 $220 $424 forward 7 unknown #
-326 coedge $-1 $425 $342 $221 $327 reversed $321 $-1 #
-327 edge $426 $331 0 $234 1 $326 $427 forward 7 unknown #
-328 coedge $-1 $428 $223 $324 $422 reversed $218 $-1 #
-329 coedge $-1 $223 $428 $425 $429 reversed $218 $-1 #
-330 ptlist-eye-attrib $-1 $-1 $-1 $224 #
-331 vertex $-1 $327 $430 #
-332 vertex $-1 $325 $431 #
-333 straight-curve $-1 -613.69799991571233 -453.50000000149703
125.00000000000009 1.4999999993834763 -3.2400748750660568e-12 0 F 0 F 1 #
-334 ptlist-eye-attrib $-1 $-1 $-1 $225 #
-335 intcurve-curve $-1 forward { exactcur full nubs 3 open 4 0 3
0.042055309670717335 1 0.084881215807755622 1 0.12842330894452283 3
-613.47716084865442 -442.60337043473874 125.16243182937731 -613.48856129128637
-442.61112386454005 125.1598959276416 -613.50989090443784 -442.62914525486838
125.15400170193288 -613.53552568808675 -442.6620536215724 125.14323841517569
-613.54771375040082 -442.68709215985206 125.13504910110585 -613.55245878902235
-442.70012904627401 125.13078514776494 0 null_surface null_surface nullbs
nullbs I I 0 0 0 I I } I I #
-336 coedge $-1 $432 $420 $226 $337 forward $433 $-1 #
-337 edge $434 $339 0 $435 1 $336 $436 forward 7 unknown #
-338 ptlist-eye-attrib $-1 $-1 $-1 $228 #
-339 vertex $-1 $228 $437 #
-340 straight-curve $-1 -612.19799991540299 -443.10000000151484
125.00000000081764 -1.4999999989344133 9.5832319857436232e-10
1.3997691894473974e-10 F 0 F 1 #
-341 coedge $-1 $230 $229 $438 $439 forward $231 $-1 #
-342 coedge $-1 $326 $418 $229 $343 reversed $321 $-1 #
-343 edge $440 $234 0 $441 1 $229 $442 forward 7 unknown #
-344 edge $443 $233 0 $444 1 $245 $445 forward 7 unknown #
-345 point $-1 -613.55245878902235 -442.70012904627401 125.13078514776494 #
-346 point $-1 -613.6979999143374 -443.10000000055652 125.0000000009576 #
-347 face $446 $163 $237 $13 $-1 $447 forward single #
-348 ptlist-eye-attrib $-1 $-1 $-1 $240 #
-349 intcurve-curve $-1 forward { exactcur full nubs 3 open 4 0 3
0.018973410169965368 1 0.037642918859468445 1 0.055930298673524684 3
-612.41868996760081 -442.60337054180837 125.16243184335693 -612.42376770511578
-442.59990296219678 125.16391217942129 -612.43416527328793 -442.59348475373349
125.16685336941231 -612.45045786730827 -442.5853817982354 125.17101483148861
-612.46172362989967 -442.58099638451682 125.17349003406973 -612.46739951162954
-442.57907662517891 125.1746114556141 0 null_surface null_surface nullbs nullbs
I I 0 0 0 I I } I I #
-350 edge $448 $435 0 $243 0.12832187745131257 $252 $449 forward 7 unknown #
-351 point $-1 -612.41868996760081 -442.60337054180837 125.16243184335693 #
-352 coedge $-1 $246 $245 $367 $450 forward $145 $-1 #
-353 ptlist-eye-attrib $-1 $-1 $-1 $247 #
-354 straight-curve $-1 -613.42860031887062 -442.5792523502754
125.17450892181259 -1.986109054996632e-10 -6.3778315961826593e-11
0.26098215319078122 F 0 F 1 #
-355 rgb_color-st-attrib $-1 $-1 $-1 $248 0 0.75294131040573098
0.80000001192092896 #
-356 cone-surface $-1 -613.3649369409062 -442.76838141749954 124.93900000000008
0 0 -1 0.19955658269978499 8.7257526283348852e-18 0 1 I I 0 1 1 forward I I I I
#
-357 coedge $-1 $252 $251 $432 $451 forward $152 $-1 #
-358 coedge $-1 $259 $452 $251 $359 reversed $368 $-1 #
-359 edge $453 $262 0 $454 0.1283260770021985 $358 $455 forward 7 unknown #
-360 rgb_color-st-attrib $-1 $-1 $-1 $253 0 0.75294131040573098
0.80000001192092896 #
-361 face $456 $457 $433 $13 $-1 $458 reversed single #
-362 cone-surface $-1 -612.53147956196597 -442.76853307393753
124.93900000000008 0 0 -1 0.19999999722914696 8.7451412420437246e-18 0 1 I I 0
1 1 forward I I I I #
-363 ptlist-eye-attrib $-1 $-1 $-1 $255 #
-364 vertex $-1 $255 $459 #
-365 intcurve-curve $-1 forward { exactcur full nubs 3 open 4 0 3
0.018896306037211937 1 0.037486642794215139 1 0.055693967886852644 3
-613.47715560192796 -442.60336694665926 125.44756692398224 -613.47209100387136
-442.59992278389376 125.44609652395414 -613.46172309734743 -442.59354874931091
125.44317736839258 -613.44548185824488 -442.58550621017224 125.43905126176921
-613.43425537892278 -442.58115591925366 125.43660048916291 -613.42860031906923
-442.57925235033917 125.43549107500337 0 null_surface null_surface nullbs
nullbs I I 0 0 0 I I } I I #
-366 point $-1 -613.42860031906923 -442.57925235033917 125.43549107500337 #
-367 coedge $-1 $438 $259 $352 $450 reversed $368 $-1 #
-368 loop $-1 $-1 $438 $457 #
-369 ptlist-eye-attrib $-1 $-1 $-1 $260 #
-370 straight-curve $-1 -613.47715560192796 -442.60336694665926
125.44756692398227 1.0584620039054471 -1.4814708606536442e-06
4.9337251084580203e-07 F 0 F 1 #
-371 point $-1 -612.4186935980224 -442.60336842813018 125.44756741735478 #
-372 rgb_color-st-attrib $-1 $-1 $-1 $267 0 0.75294131040573098
0.80000001192092896 #
-373 plane-surface $-1 -616.99999991525169 -443.1000000040039
124.93900000000008 0.93969262070096127 -0.34202014355905902 0 0 0 -1 forward_v
F -0.68434226066433634 F -0.047657736827470779 F -0.013342261467009611 F
0.4388760501820792 #
-374 coedge $-1 $289 $381 $460 $461 reversed $268 $-1 #
-375 coedge $-1 $271 $270 $462 $463 reversed $94 $-1 #
-376 coedge $-1 $283 $464 $270 $377 reversed $389 $-1 #
-377 edge $465 $286 0 $466 1 $376 $467 forward 7 unknown #
-378 edge $468 $469 0 $279 1 $275 $470 forward 7 unknown #
-379 ptlist-eye-attrib $-1 $-1 $-1 $272 #
-380 straight-curve $-1 -615.49999991540312 -443.10000000163677
125.00000000081764 -9.2575191956711933e-10 -10.399999999985369
-8.1755047176557127e-10 F 0 F 1 #
-381 coedge $-1 $374 $273 $276 $385 forward $268 $-1 #
-382 ptlist-eye-attrib $-1 $-1 $-1 $274 #
-383 straight-curve $-1 -616.99999991571235 -453.5000000016189
125.00000000000009 1.3748149285675026e-09 10.400000000940338
9.5751317985559581e-10 F 0 F 1 #
-384 coedge $-1 $276 $275 $471 $472 forward $168 $-1 #
-385 edge $473 $278 0 $474 1 $381 $475 forward 7 unknown #
-386 point $-1 -616.99999991571235 -453.50000000161896 125.00000000000009 #
-387 point $-1 -615.49999991632899 -453.50000000162214 125.00000000000009 #
-388 coedge $-1 $464 $283 $304 $407 reversed $389 $-1 #
-389 loop $-1 $-1 $388 $308 #
-390 ptlist-eye-attrib $-1 $-1 $-1 $284 #
-391 vertex $-1 $284 $476 #
-392 straight-curve $-1 -615.49999991540312 -443.10000000163677
125.00000000081764 -0.14554112501025429 0.39987095529721728 0.13078514697674848
F 0 F 1 #
-393 point $-1 -615.49999991540312 -443.10000000163677 125.00000000081764 #
-394 coedge $-1 $477 $314 $288 $395 reversed $315 $-1 #
-395 edge $478 $397 0 $400 1 $394 $479 forward 7 unknown #
-396 ptlist-eye-attrib $-1 $-1 $-1 $290 #
-397 vertex $-1 $290 $480 #
-398 straight-curve $-1 -616.99999991433754 -443.10000000067851
125.00000000095763 -6.957634468562901e-11 -1.9110757421003655e-10
0.60999999689330764 F 0 F 1 #
-399 ptlist-eye-attrib $-1 $-1 $-1 $291 #
-400 vertex $-1 $291 $481 #
-401 straight-curve $-1 -616.85445878902237 -442.70012904639594
125.13078514776494 0 -1.7053025658242404e-13 0.34842970194749512 F 0 F 1 #
-402 rgb_color-st-attrib $-1 $-1 $-1 $294 0 0.75294131040573098
0.80000001192092896 #
-403 cone-surface $-1 -616.24948041502944 -443.99999991369259
124.93900000000008 0 0 -1 1.5 6.5588560224009242e-17 0 1 I I 0 1 1 forward I I
I I #
-404 ptlist-eye-attrib $-1 $-1 $-1 $297 #
-405 intcurve-curve $-1 forward { exactcur full nubs 3 open 4 0 3
0.043510054114955066 1 0.086302252993465847 1 0.12832187745136037 3
-615.64554104041338 -442.70012904633955 125.13078514779434 -615.65028258753932
-442.6871017526783 125.13504596364645 -615.66245294379291 -442.66208002804774
125.14322978532789 -615.68803472145225 -442.62917672343684 125.1539913863258
-615.70931507592911 -442.61113843901614 125.15989120983006 -615.72068996760083
-442.6033705419303 125.16243184335691 0 null_surface null_surface nullbs nullbs
I I 0 0 0 I I } I I #
-406 edge $482 $400 0 $311 0.12842969105053528 $314 $483 forward 7 unknown #
-407 edge $484 $410 0 $391 1 $388 $485 forward 7 unknown #
-408 coedge $-1 $305 $477 $464 $486 reversed $315 $-1 #
-409 ptlist-eye-attrib $-1 $-1 $-1 $306 #
-410 vertex $-1 $407 $487 #
-411 intcurve-curve $-1 forward { exactcur full nubs 3 open 4 0 3
0.042027868753036664 1 0.084820405545720956 1 0.12832607700231813 3
-615.72069359802254 -442.60336842825205 125.44756741735478 -615.70931648196915
-442.61113785917553 125.45010855255201 -615.68803333364417 -442.62917734442448
125.45600883587991 -615.66245166342969 -442.6620825052284 125.4667710160513
-615.65028210993512 -442.68710306488498 125.47495446303707 -615.64554104041338
-442.7001290463395 125.47921484970853 0 null_surface null_surface nullbs nullbs
I I 0 0 0 I I } I I #
-412 rgb_color-st-attrib $-1 $-1 $-1 $308 0 0.75294131040573098
0.80000001192092896 #
-413 face $488 $489 $315 $12 $-1 $490 forward single #
-414 plane-surface $-1 -615.64554104041349 -442.70012904633961
124.93900000000008 -0.93969262078145521 -0.34202014333790409 0
-0.34202014333790398 0.93969262078145521 0 forward_v F -0.43887604838461347 F
0.013342265198708065 F -0.68434226126965014 F -0.047657736253871312 #
-415 point $-1 -616.7791556019281 -442.60336694678119 125.44756692398227 #
-416 rgb_color-st-attrib $-1 $-1 $-1 $320 0 0.75294131040573098
0.80000001192092896 #
-417 plane-surface $-1 -613.69799991525167 -443.10000000388197
124.93900000000008 0.93969262070096127 -0.34202014355905902 0 0 0 -1 forward_v
F -0.68434226066433634 F -0.047657736827470779 F -0.013342261467009611 F
0.4388760501820792 #
-418 coedge $-1 $342 $425 $491 $492 reversed $321 $-1 #
-419 coedge $-1 $324 $323 $493 $494 reversed $131 $-1 #
-420 coedge $-1 $336 $495 $323 $421 reversed $433 $-1 #
-421 edge $496 $339 0 $497 1 $420 $498 forward 7 unknown #
-422 edge $499 $500 0 $332 1 $328 $501 forward 7 unknown #
-423 ptlist-eye-attrib $-1 $-1 $-1 $325 #
-424 straight-curve $-1 -612.1979999154031 -443.10000000151484
125.00000000081764 -9.2586560640484095e-10 -10.399999999985369
-8.1755047176557127e-10 F 0 F 1 #
-425 coedge $-1 $418 $326 $329 $429 forward $321 $-1 #
-426 ptlist-eye-attrib $-1 $-1 $-1 $327 #
-427 straight-curve $-1 -613.69799991571233 -453.50000000149703
125.00000000000009 1.3749286154052243e-09 10.400000000940508
9.5751317985559581e-10 F 0 F 1 #
-428 coedge $-1 $329 $328 $502 $503 forward $218 $-1 #
-429 edge $504 $331 0 $505 1 $425 $506 forward 7 unknown #
-430 point $-1 -613.69799991571233 -453.50000000149703 125.00000000000009 #
-431 point $-1 -612.19799991632885 -453.50000000150021 125.00000000000009 #
-432 coedge $-1 $495 $336 $357 $451 reversed $433 $-1 #
-433 loop $-1 $-1 $432 $361 #
-434 ptlist-eye-attrib $-1 $-1 $-1 $337 #
-435 vertex $-1 $337 $507 #
-436 straight-curve $-1 -612.19799991540299 -443.10000000151479
125.00000000081764 -0.14554112501048166 0.39987095529716044 0.13078514697674848
F 0 F 1 #
-437 point $-1 -612.1979999154031 -443.10000000151484 125.00000000081764 #
-438 coedge $-1 $508 $367 $341 $439 reversed $368 $-1 #
-439 edge $509 $441 0 $444 1 $438 $510 forward 7 unknown #
-440 ptlist-eye-attrib $-1 $-1 $-1 $343 #
-441 vertex $-1 $343 $511 #
-442 straight-curve $-1 -613.69799991433752 -443.10000000055663
125.00000000095763 -6.9462657847907394e-11 -1.9093704395345412e-10
0.60999999689330764 F 0 F 1 #
-443 ptlist-eye-attrib $-1 $-1 $-1 $344 #
-444 vertex $-1 $344 $512 #
-445 straight-curve $-1 -613.55245878902235 -442.70012904627407
125.13078514776494 0 -5.6843418860808015e-14 0.34842970194749512 F 0 F 1 #
-446 rgb_color-st-attrib $-1 $-1 $-1 $347 0 0.75294131040573098
0.80000001192092896 #
-447 cone-surface $-1 -612.94748041502953 -443.99999991357066
124.93900000000008 0 0 -1 1.5 6.5588560224009242e-17 0 1 I I 0 1 1 forward I I
I I #
-448 ptlist-eye-attrib $-1 $-1 $-1 $350 #
-449 intcurve-curve $-1 forward { exactcur full nubs 3 open 4 0 3
0.043510054114907271 1 0.086302252993418052 1 0.12832187745131257 3
-612.34354104041347 -442.70012904621763 125.13078514779434 -612.34828258753942
-442.68710175255637 125.13504596364645 -612.36045294379267 -442.66208002792575
125.14322978532788 -612.38603472145246 -442.62917672331503 125.15399138632583
-612.40731507592909 -442.61113843889422 125.15989120983006 -612.41868996760081
-442.60337054180837 125.16243184335691 0 null_surface null_surface nullbs
nullbs I I 0 0 0 I I } I I #
-450 edge $513 $444 0 $364 0.12842969105057131 $367 $514 forward 7 unknown #
-451 edge $515 $454 0 $435 1 $432 $516 forward 7 unknown #
-452 coedge $-1 $358 $508 $495 $517 reversed $368 $-1 #
-453 ptlist-eye-attrib $-1 $-1 $-1 $359 #
-454 vertex $-1 $451 $518 #
-455 intcurve-curve $-1 forward { exactcur full nubs 3 open 4 0 3
0.042027868752915823 1 0.084820405545600108 1 0.1283260770021985 3
-612.4186935980224 -442.60336842813018 125.44756741735478 -612.40731648196902
-442.61113785905366 125.450108552552 -612.38603333364404 -442.62917734430243
125.45600883587989 -612.3604516634299 -442.6620825051067 125.46677101605135
-612.34828210993521 -442.68710306476311 125.47495446303707 -612.34354104041347
-442.70012904621763 125.47921484970853 0 null_surface null_surface nullbs
nullbs I I 0 0 0 I I } I I #
-456 rgb_color-st-attrib $-1 $-1 $-1 $361 0 0.75294131040573098
0.80000001192092896 #
-457 face $519 $520 $368 $13 $-1 $521 forward single #
-458 plane-surface $-1 -612.34354104041347 -442.70012904621768
124.93900000000008 -0.93969262078145521 -0.34202014333790409 0
-0.34202014333790398 0.93969262078145521 0 forward_v F -0.43887604838461347 F
0.013342265198708065 F -0.68434226126965014 F -0.047657736253871312 #
-459 point $-1 -613.47715560192796 -442.60336694665926 125.44756692398227 #
-460 coedge $-1 $471 $522 $374 $461 forward $523 $-1 #
-461 edge $524 $397 0 $474 1 $460 $525 forward 7 unknown #
-462 coedge $-1 $522 $471 $375 $463 forward $523 $-1 #
-463 edge $526 $469 0 $466 1 $462 $527 forward 7 unknown #
-464 coedge $-1 $376 $388 $408 $486 forward $389 $-1 #
-465 ptlist-eye-attrib $-1 $-1 $-1 $377 #
-466 vertex $-1 $463 $528 #
-467 straight-curve $-1 -615.49999991540312 -443.10000000163677
125.00000000081762 6.4460436988156289e-11 -1.7712409317027777e-10
0.60999999718464437 F 0 F 1 #
-468 ptlist-eye-attrib $-1 $-1 $-1 $378 #
-469 vertex $-1 $378 $529 #
-470 straight-curve $-1 -615.49999991632887 -453.50000000162214
125.61000000000008 -1.1368683772161603e-13 0 -0.60999999999999943 F 0 F 1 #
-471 coedge $-1 $462 $460 $384 $472 reversed $523 $-1 #
-472 edge $530 $469 0 $474 1 $471 $531 forward 7 unknown #
-473 ptlist-eye-attrib $-1 $-1 $-1 $385 #
-474 vertex $-1 $385 $532 #
-475 straight-curve $-1 -616.99999991571235 -453.50000000161901
125.00000000000009 0 5.6843418860808015e-14 0.60999999999999943 F 0 F 1 #
-476 point $-1 -615.64554104041338 -442.70012904633955 125.13078514779438 #
-477 coedge $-1 $408 $394 $522 $533 forward $315 $-1 #
-478 ptlist-eye-attrib $-1 $-1 $-1 $395 #
-479 straight-curve $-1 -616.99999991440711 -443.10000000086956
125.60999999785093 0.14554112538473873 0.39987095447355614 -0.13078514813850006
F 0 F 1 #
-480 point $-1 -616.99999991440711 -443.10000000086956 125.60999999785093 #
-481 point $-1 -616.85445878902237 -442.70012904639611 125.47921484971243 #
-482 ptlist-eye-attrib $-1 $-1 $-1 $406 #
-483 intcurve-curve $-1 forward { exactcur full nubs 3 open 4 0 3
0.043549446700666274 1 0.086377845899765937 1 0.12842969105053528 3
-616.85445878902237 -442.70012904639611 125.47921484971243 -616.84971294903971
-442.68708995825244 125.47495017625749 -616.83752301667892 -442.66204869068491
125.46675995513314 -616.81188549713397 -442.62913965902527 125.45599651436697
-616.79055540280876 -442.61111934278352 125.45010248759513 -616.7791556019281
-442.60336694678119 125.44756692398227 0 null_surface null_surface nullbs
nullbs I I 0 0 0 I I } I I #
-484 ptlist-eye-attrib $-1 $-1 $-1 $407 #
-485 straight-curve $-1 -615.64554104041338 -442.70012904633955
125.47921484970851 0 0 -0.34842970191412803 F 0 F 1 #
-486 edge $534 $410 0 $466 1 $408 $535 forward 7 unknown #
-487 point $-1 -615.64554104041338 -442.7001290463395 125.47921484970853 #
-488 rgb_color-st-attrib $-1 $-1 $-1 $413 0 0.75294131040573098
0.80000001192092896 #
-489 face $536 $-1 $523 $12 $-1 $537 forward single #
-490 plane-surface $-1 -620.74999991528762 -442.60337045846086
125.44756817491603 -1.1477145967864797e-11 0.31086362372947995
0.95045452676168374 1 3.6920239888164409e-11 -1.0303627905945173e-26 forward_v
F 3.7200000007793403 F 5.2800000002171181 F -0.53586020754610209 F
0.013345714632778165 #
-491 coedge $-1 $502 $538 $418 $492 forward $539 $-1 #
-492 edge $540 $441 0 $505 1 $491 $541 forward 7 unknown #
-493 coedge $-1 $538 $502 $419 $494 forward $539 $-1 #
-494 edge $542 $500 0 $497 1 $493 $543 forward 7 unknown #
-495 coedge $-1 $420 $432 $452 $517 forward $433 $-1 #
-496 ptlist-eye-attrib $-1 $-1 $-1 $421 #
-497 vertex $-1 $494 $544 #
-498 straight-curve $-1 -612.1979999154031 -443.1000000015149
125.00000000081762 6.4460436988156289e-11 -1.7706724975141697e-10
0.60999999718464437 F 0 F 1 #
-499 ptlist-eye-attrib $-1 $-1 $-1 $422 #
-500 vertex $-1 $422 $545 #
-501 straight-curve $-1 -612.19799991632897 -453.50000000150021
125.61000000000008 1.1368683772161603e-13 0 -0.60999999999999943 F 0 F 1 #
-502 coedge $-1 $493 $491 $428 $503 reversed $539 $-1 #
-503 edge $546 $500 0 $505 1 $502 $547 forward 7 unknown #
-504 ptlist-eye-attrib $-1 $-1 $-1 $429 #
-505 vertex $-1 $429 $548 #
-506 straight-curve $-1 -613.69799991571233 -453.50000000149703
125.00000000000009 0 0 0.60999999999999943 F 0 F 1 #
-507 point $-1 -612.34354104041347 -442.70012904621763 125.13078514779438 #
-508 coedge $-1 $452 $438 $538 $549 forward $368 $-1 #
-509 ptlist-eye-attrib $-1 $-1 $-1 $439 #
-510 straight-curve $-1 -613.69799991440698 -443.10000000074768
125.60999999785093 0.14554112538462505 0.39987095447355614 -0.13078514813850006
F 0 F 1 #
-511 point $-1 -613.69799991440698 -443.10000000074768 125.60999999785093 #
-512 point $-1 -613.55245878902235 -442.70012904627413 125.47921484971243 #
-513 ptlist-eye-attrib $-1 $-1 $-1 $450 #
-514 intcurve-curve $-1 forward { exactcur full nubs 3 open 4 0 3
0.043549446700617257 1 0.086377845899716921 1 0.12842969105057131 3
-613.55245878902235 -442.70012904627413 125.47921484971243 -613.54771294903969
-442.68708995813046 125.47495017625749 -613.53552301667901 -442.66204869056304
125.46675995513314 -613.50988549713384 -442.62913965890334 125.45599651436697
-613.48855540280874 -442.6111193426616 125.45010248759513 -613.47715560192796
-442.60336694665926 125.44756692398227 0 null_surface null_surface nullbs
nullbs I I 0 0 0 I I } I I #
-515 ptlist-eye-attrib $-1 $-1 $-1 $451 #
-516 straight-curve $-1 -612.34354104041347 -442.70012904621763
125.47921484970851 0 0 -0.34842970191412803 F 0 F 1 #
-517 edge $550 $454 0 $497 1 $452 $551 forward 7 unknown #
-518 point $-1 -612.34354104041347 -442.70012904621763 125.47921484970853 #
-519 rgb_color-st-attrib $-1 $-1 $-1 $457 0 0.75294131040573098
0.80000001192092896 #
-520 face $552 $-1 $539 $13 $-1 $553 forward single #
-521 plane-surface $-1 -617.4479999152876 -442.60337045833893
125.44756817491603 -1.1477145967864797e-11 0.31086362372947995
0.95045452676168374 1 3.6920239888164409e-11 -1.0303627905945173e-26 forward_v
F 3.7200000007793403 F 5.2800000002171181 F -0.53586020754610209 F
0.013345714632778165 #
-522 coedge $-1 $460 $462 $477 $533 reversed $523 $-1 #
-523 loop $-1 $-1 $471 $489 #
-524 ptlist-eye-attrib $-1 $-1 $-1 $461 #
-525 straight-curve $-1 -616.999999914407 -443.10000000086961
125.60999999785092 -1.3053522707195953e-09 -10.400000000749401
2.1491644019988598e-09 F 0 F 1 #
-526 ptlist-eye-attrib $-1 $-1 $-1 $463 #
-527 straight-curve $-1 -615.49999991632887 -453.50000000162214
125.61000000000008 9.9021235655527562e-10 10.399999999808188
-1.9978330101366737e-09 F 0 F 1 #
-528 point $-1 -615.49999991533866 -443.10000000181395 125.60999999800225 #
-529 point $-1 -615.49999991632887 -453.50000000162214 125.61000000000008 #
-530 ptlist-eye-attrib $-1 $-1 $-1 $472 #
-531 straight-curve $-1 -615.49999991632887 -453.50000000162214
125.61000000000008 -1.4999999993834763 3.2400748750660568e-12 0 F 0 F 1 #
-532 point $-1 -616.99999991571235 -453.50000000161896 125.61000000000008 #
-533 edge $554 $397 0 $466 1 $522 $555 forward 7 unknown #
-534 ptlist-eye-attrib $-1 $-1 $-1 $486 #
-535 straight-curve $-1 -615.64554104041338 -442.7001290463395
125.47921484970853 0.14554112507471473 -0.39987095547439822 0.13078514829372523
F 0 F 1 #
-536 rgb_color-st-attrib $-1 $-1 $-1 $489 0 0.75294131040573098
0.80000001192092896 #
-537 plane-surface $-1 -640 -449.99999999999989 125.61000000000008 0 0 1 1
4.3725706816006159e-17 0 forward_v F 22.970000084955249 F 24.530000084006481 F
-3.708000001641377 F 7.1079999994362248 #
-538 coedge $-1 $491 $493 $508 $549 reversed $539 $-1 #
-539 loop $-1 $-1 $502 $520 #
-540 ptlist-eye-attrib $-1 $-1 $-1 $492 #
-541 straight-curve $-1 -613.69799991440709 -443.10000000074763
125.60999999785092 -1.3052385838818736e-09 -10.400000000749401
2.1491644019988598e-09 F 0 F 1 #
-542 ptlist-eye-attrib $-1 $-1 $-1 $494 #
-543 straight-curve $-1 -612.19799991632885 -453.50000000150021
125.61000000000008 9.9021235655527562e-10 10.399999999808188
-1.9978330101366737e-09 F 0 F 1 #
-544 point $-1 -612.19799991533864 -443.10000000169202 125.60999999800225 #
-545 point $-1 -612.19799991632897 -453.50000000150021 125.61000000000008 #
-546 ptlist-eye-attrib $-1 $-1 $-1 $503 #
-547 straight-curve $-1 -612.19799991632885 -453.50000000150027
125.61000000000008 -1.4999999993834763 3.2400748750660568e-12 0 F 0 F 1 #
-548 point $-1 -613.69799991571233 -453.50000000149703 125.61000000000008 #
-549 edge $556 $441 0 $497 1 $538 $557 forward 7 unknown #
-550 ptlist-eye-attrib $-1 $-1 $-1 $517 #
-551 straight-curve $-1 -612.34354104041347 -442.70012904621763
125.47921484970853 0.14554112507482841 -0.39987095547439822 0.13078514829372523
F 0 F 1 #
-552 rgb_color-st-attrib $-1 $-1 $-1 $520 0 0.75294131040573098
0.80000001192092896 #
-553 plane-surface $-1 -636.69799999999998 -449.99999999987796
125.61000000000008 0 0 1 1 4.3725706816006159e-17 0 forward_v F
22.970000084955249 F 24.530000084006481 F -3.708000001641377 F
7.1079999994362248 #
-554 ptlist-eye-attrib $-1 $-1 $-1 $533 #
-555 straight-curve $-1 -616.99999991440711 -443.10000000086956
125.60999999785093 1.4999999990684501 -9.4439656095346436e-10
1.5131718100747094e-10 F 0 F 1 #
-556 ptlist-eye-attrib $-1 $-1 $-1 $549 #
-557 straight-curve $-1 -613.69799991440686 -443.10000000074763
125.60999999785093 1.4999999990682227 -9.4439656095346436e-10
1.5131718100747094e-10 F 0 F 1 #
End-of-ACIS-data
