500 0 5 0 
58 PRO/ENGINEER BY PARAMETRIC TECHNOLOGY CORPORATION, 2018500 8 ACIS 7.0 24
Fri Apr  3 10:55:04 2020 
1 0.002 1e-10 
-0 body $-1 $-1 $-1 $5 #
-1 body $-1 $-1 $-1 $6 #
-2 body $-1 $-1 $-1 $7 #
-3 body $-1 $8 $-1 $9 #
-4 body $-1 $10 $-1 $11 #
-5 transform $-1 1 0 0 0 1 0 0 0 1 0 0 0 1 rotate no_reflect no_shear #
-6 transform $-1 1 0 0 0 1 0 0 0 1 0 0 0 1 rotate no_reflect no_shear #
-7 transform $-1 1 0 0 0 1 0 0 0 1 0 0 0 1 rotate no_reflect no_shear #
-8 lump $-1 $-1 $12 $3 #
-9 transform $-1 1 0 0 0 1 0 0 0 1 0 0 0 1 rotate no_reflect no_shear #
-10 lump $-1 $-1 $13 $4 #
-11 transform $-1 1 0 0 0 1 0 0 0 1 0 0 0 1 rotate no_reflect no_shear #
-12 shell $-1 $-1 $-1 $14 $-1 $8 #
-13 shell $-1 $-1 $-1 $15 $-1 $10 #
-14 face $16 $17 $18 $12 $-1 $19 forward single #
-15 face $20 $21 $22 $13 $-1 $23 forward single #
-16 rgb_color-st-attrib $-1 $-1 $-1 $14 0 0.75294131040573098
0.80000001192092896 #
-17 face $24 $25 $26 $12 $-1 $27 forward single #
-18 loop $-1 $-1 $28 $14 #
-19 cone-surface $-1 291.24999991528279 964.93900000000008 -443.9999999770917 0
-1 0 -1.4999999733794198 0 0 1 I I 0 1 1 forward I I I I #
-20 rgb_color-st-attrib $-1 $-1 $-1 $15 0 0.75294131040573098
0.80000001192092896 #
-21 face $29 $30 $31 $13 $-1 $32 forward single #
-22 loop $-1 $-1 $33 $15 #
-23 cone-surface $-1 287.94799991528276 964.93900000000008 -443.99999997696978
0 -1 0 -1.4999999733794198 0 0 1 I I 0 1 1 forward I I I I #
-24 rgb_color-st-attrib $-1 $-1 $-1 $17 0 0.75294131040573098
0.80000001192092896 #
-25 face $34 $35 $36 $12 $-1 $37 forward single #
-26 loop $-1 $-1 $38 $17 #
-27 spline-surface $-1 forward { exactsur full nubs 3 3 open open none none 2 2
-0.032372643245524586 3 1.0301635984207078 3 -0.55033033358314865 3
0.55048066191446821 3 291.80033032419414 965.15991052339564 -442.60951649202696
291.80033032419516 965.18668308153019 -442.5415502209342 291.8003303242009
965.24021486201343 -442.4971198496313 291.8003303242026 965.31023720297048
-442.50013792225894 291.43339332569491 965.15991052374147 -442.60951649354632
291.43339332569593 965.18668308187603 -442.54155022245357 291.43339332570167
965.24021486235927 -442.49711985115067 291.43339332570338 965.31023720331632
-442.50013792377831 291.06645632719574 965.15991052408731 -442.60951649506569
291.06645632719676 965.18668308222186 -442.54155022397293 291.0664563272025
965.24021486270499 -442.4971198526701 291.06645632720421 965.31023720366204
-442.50013792529774 290.69951932869651 965.15991052443314 -442.60951649658506
290.69951932869753 965.1866830825677 -442.5415502254923 290.69951932870327
965.24021486305082 -442.49711985418946 290.69951932870498 965.31023720400788
-442.5001379268171 0 0 0 0 0 0 0 F -0.032372643245524586 F 1.0301635984207078 F
-0.55033033358314865 F 0.55048066191446821 } I I I I #
-28 coedge $-1 $39 $40 $41 $42 forward $18 $-1 #
-29 rgb_color-st-attrib $-1 $-1 $-1 $21 0 0.75294131040573098
0.80000001192092896 #
-30 face $43 $44 $45 $13 $-1 $46 forward single #
-31 loop $-1 $-1 $47 $21 #
-32 spline-surface $-1 forward { exactsur full nubs 3 3 open open none none 2 2
-0.032372643245524586 3 1.0301635984207078 3 -0.55033033358314865 3
0.55048066191446821 3 288.49833032419411 965.15991052339564 -442.60951649190503
288.49833032419514 965.18668308153019 -442.54155022081227 288.49833032420088
965.24021486201343 -442.49711984950937 288.49833032420258 965.31023720297048
-442.50013792213701 288.13139332569489 965.15991052374147 -442.60951649342439
288.13139332569591 965.18668308187603 -442.54155022233164 288.13139332570165
965.24021486235927 -442.49711985102874 288.13139332570336 965.31023720331632
-442.50013792365638 287.76445632719572 965.15991052408731 -442.60951649494376
287.76445632719674 965.18668308222186 -442.541550223851 287.76445632720248
965.24021486270499 -442.49711985254817 287.76445632720419 965.31023720366204
-442.50013792517581 287.39751932869649 965.15991052443314 -442.60951649646313
287.39751932869751 965.1866830825677 -442.54155022537037 287.39751932870325
965.24021486305082 -442.49711985406753 287.39751932870496 965.31023720400788
-442.50013792669517 0 0 0 0 0 0 0 F -0.032372643245524586 F 1.0301635984207078
F -0.55033033358314865 F 0.55048066191446821 } I I I I #
-33 coedge $-1 $48 $49 $50 $51 forward $22 $-1 #
-34 rgb_color-st-attrib $-1 $-1 $-1 $25 0 0.75294131040573098
0.80000001192092896 #
-35 face $52 $53 $54 $12 $-1 $55 forward single #
-36 loop $-1 $-1 $56 $25 #
-37 plane-surface $-1 295.74999991528068 965.00000000105024 -443.10000000337749
-8.6274226241449274e-12 -0.95045452677410058 0.31086362369151588 1
-9.0771545414454643e-12 2.5111363541562716e-27 forward_v F -5.2799999999598919
F -3.7200000010796574 F -0.013342262883227308 F 0.53586020733214901 #
-38 coedge $-1 $57 $58 $59 $60 reversed $26 $-1 #
-39 coedge $-1 $40 $28 $61 $62 reversed $18 $-1 #
-40 coedge $-1 $28 $39 $63 $64 forward $18 $-1 #
-41 coedge $-1 $65 $66 $28 $42 reversed $67 $-1 #
-42 edge $68 $69 0 $70 0.5084573738344621 $41 $71 forward 7 unknown #
-43 rgb_color-st-attrib $-1 $-1 $-1 $30 0 0.75294131040573098
0.80000001192092896 #
-44 face $72 $73 $74 $13 $-1 $75 forward single #
-45 loop $-1 $-1 $76 $30 #
-46 plane-surface $-1 292.44799991528066 965.00000000105024 -443.10000000325556
-8.6274226241449274e-12 -0.95045452677410058 0.31086362369151588 1
-9.0771545414454643e-12 2.5111363541562716e-27 forward_v F -5.2799999999598919
F -3.7200000010796574 F -0.013342262883227308 F 0.53586020733214901 #
-47 coedge $-1 $77 $78 $79 $80 reversed $31 $-1 #
-48 coedge $-1 $49 $33 $81 $82 reversed $22 $-1 #
-49 coedge $-1 $33 $48 $83 $84 forward $22 $-1 #
-50 coedge $-1 $85 $86 $33 $51 reversed $87 $-1 #
-51 edge $88 $89 0 $90 0.50845737383446055 $50 $91 forward 7 unknown #
-52 rgb_color-st-attrib $-1 $-1 $-1 $35 0 0.75294131040573098
0.80000001192092896 #
-53 face $92 $93 $94 $12 $-1 $95 reversed single #
-54 loop $-1 $-1 $96 $35 #
-55 plane-surface $-1 315 965.00000000000011 -450 0 -1 0 0 0 -1 forward_v F
-7.1079999994362248 F 3.708000001641377 F -24.530000084006481 F
-22.970000084955277 #
-56 coedge $-1 $97 $98 $99 $100 reversed $36 $-1 #
-57 coedge $-1 $63 $38 $101 $102 reversed $26 $-1 #
-58 coedge $-1 $38 $103 $104 $105 forward $26 $-1 #
-59 coedge $-1 $106 $107 $38 $60 forward $108 $-1 #
-60 edge $109 $110 0 $111 0.055700386994291515 $59 $112 forward 7 unknown #
-61 coedge $-1 $113 $114 $39 $62 forward $115 $-1 #
-62 edge $116 $117 0 $70 1 $61 $118 forward 7 unknown #
-63 coedge $-1 $103 $57 $40 $64 reversed $26 $-1 #
-64 edge $119 $117 0 $69 0.50803856192138941 $63 $120 forward 7 unknown #
-65 coedge $-1 $121 $41 $122 $123 reversed $67 $-1 #
-66 coedge $-1 $41 $124 $113 $125 reversed $67 $-1 #
-67 loop $-1 $-1 $65 $126 #
-68 ptlist-eye-attrib $-1 $-1 $-1 $42 #
-69 vertex $-1 $64 $127 #
-70 vertex $-1 $62 $128 #
-71 intcurve-curve $-1 forward { exactcur full nubs 3 open 6 0 3
0.097071517451367148 1 0.20093989368099174 1 0.30555549706033591 1
0.40849857783614102 1 0.5084573738344621 3 291.25171551517855
965.30498360601962 -442.49999764025074 291.22129484303252 965.31600927361285
-442.49993462079306 291.15802657278135 965.33811830843365 -442.50181856978048
291.06064737167338 965.36690475945556 -442.51086287745494 290.96147123772022
965.39341300071578 -442.52686251108133 290.86405438489714 965.41640555884578
-442.54936748117802 290.80046697930851 965.42950518582063 -442.56856862822309
290.76939984225476 965.43538849335823 -442.57907649874812 0 null_surface
null_surface nullbs nullbs I I 0 0 0 I I } I I #
-72 rgb_color-st-attrib $-1 $-1 $-1 $44 0 0.75294131040573098
0.80000001192092896 #
-73 face $129 $130 $131 $13 $-1 $132 reversed single #
-74 loop $-1 $-1 $133 $44 #
-75 plane-surface $-1 311.69799999999998 965.00000000000011 -449.99999999987807
0 -1 0 0 0 -1 forward_v F -7.1079999994362248 F 3.708000001641377 F
-24.530000084006481 F -22.970000084955277 #
-76 coedge $-1 $134 $135 $136 $137 reversed $45 $-1 #
-77 coedge $-1 $83 $47 $138 $139 reversed $31 $-1 #
-78 coedge $-1 $47 $140 $141 $142 forward $31 $-1 #
-79 coedge $-1 $143 $144 $47 $80 forward $145 $-1 #
-80 edge $146 $147 0 $148 0.055700386994266542 $79 $149 forward 7 unknown #
-81 coedge $-1 $150 $151 $48 $82 forward $152 $-1 #
-82 edge $153 $154 0 $90 1 $81 $155 forward 7 unknown #
-83 coedge $-1 $140 $77 $49 $84 reversed $31 $-1 #
-84 edge $156 $154 0 $89 0.50803856192145835 $83 $157 forward 7 unknown #
-85 coedge $-1 $158 $50 $159 $160 reversed $87 $-1 #
-86 coedge $-1 $50 $161 $150 $162 reversed $87 $-1 #
-87 loop $-1 $-1 $85 $163 #
-88 ptlist-eye-attrib $-1 $-1 $-1 $51 #
-89 vertex $-1 $84 $164 #
-90 vertex $-1 $82 $165 #
-91 intcurve-curve $-1 forward { exactcur full nubs 3 open 6 0 3
0.097071517451365566 1 0.20093989368099016 1 0.30555549706033436 1
0.40849857783613946 1 0.50845737383446055 3 287.94971551517853
965.30498360601962 -442.49999764012887 287.9192948430325 965.31600927361285
-442.49993462067118 287.85602657278139 965.33811830843365 -442.50181856965855
287.75864737167331 965.36690475945556 -442.51086287733301 287.65947123772014
965.39341300071555 -442.5268625109594 287.56205438489712 965.41640555884578
-442.54936748105604 287.49846697930849 965.42950518582063 -442.56856862810116
287.46739984225474 965.43538849335823 -442.57907649862619 0 null_surface
null_surface nullbs nullbs I I 0 0 0 I I } I I #
-92 rgb_color-st-attrib $-1 $-1 $-1 $53 0 0.75294131040573098
0.80000001192092896 #
-93 face $166 $167 $168 $12 $-1 $169 forward single #
-94 loop $-1 $-1 $170 $53 #
-95 plane-surface $-1 290.49999991544479 964.93900000000008 -443.10000000249352
1 0 1.0201341329078201e-10 0 1 0 forward_v F 0.047657734801291936 F
0.68434226519870811 F -10.60799999911211 F 0.20799999998259039 #
-96 coedge $-1 $171 $172 $173 $174 reversed $54 $-1 #
-97 coedge $-1 $104 $56 $106 $175 reversed $36 $-1 #
-98 coedge $-1 $56 $176 $177 $178 forward $36 $-1 #
-99 coedge $-1 $179 $180 $56 $100 forward $181 $-1 #
-100 edge $182 $183 0 $184 1 $99 $185 forward 7 unknown #
-101 coedge $-1 $186 $122 $57 $102 forward $187 $-1 #
-102 edge $188 $69 0 $110 0.50482604829494404 $101 $189 forward 7 unknown #
-103 coedge $-1 $58 $63 $114 $190 reversed $26 $-1 #
-104 coedge $-1 $191 $97 $58 $105 reversed $36 $-1 #
-105 edge $192 $193 0 $111 1 $104 $194 forward 7 unknown #
-106 coedge $-1 $195 $59 $97 $175 forward $108 $-1 #
-107 coedge $-1 $59 $196 $186 $197 reversed $108 $-1 #
-108 loop $-1 $-1 $106 $198 #
-109 ptlist-eye-attrib $-1 $-1 $-1 $60 #
-110 vertex $-1 $102 $199 #
-111 vertex $-1 $105 $200 #
-112 intcurve-curve $-1 forward { exactcur full nubs 3 open 4 0 3
0.018209995698273661 1 0.03680282105778164 1 0.055700386994291515 3
291.73060031887064 965.17450892181262 -442.57925235039744 291.73625620821798
965.17339934506072 -442.58115619853066 291.74748425111306 965.17094826916014
-442.58550716705491 291.76372722656549 965.1668218993027 -442.59355101978201
291.77409603946523 965.16390234323364 -442.59992586312143 291.77916084865439
965.16243182937728 -442.60337043486072 0 null_surface null_surface nullbs
nullbs I I 0 0 0 I I } I I #
-113 coedge $-1 $201 $61 $66 $125 forward $115 $-1 #
-114 coedge $-1 $61 $202 $103 $190 forward $115 $-1 #
-115 loop $-1 $-1 $61 $203 #
-116 ptlist-eye-attrib $-1 $-1 $-1 $62 #
-117 vertex $-1 $64 $204 #
-118 straight-curve $-1 290.76939951162944 965.17461145561413
-442.57907662530101 3.3062531201721868e-07 0.26077703774433303
1.2655289083340904e-07 F 0 F 1 #
-119 ptlist-eye-attrib $-1 $-1 $-1 $64 #
-120 intcurve-curve $-1 forward { exactcur full nubs 3 open 4 0 3
0.17380389165458046 1 0.34321824662994871 1 0.50803856192138941 3
290.76939951162944 965.17461145561413 -442.5790766253009 290.82328716351617
965.18558131959514 -442.56085014798037 290.93143636690127 965.20976142242944
-442.53104596780588 291.09298203264433 965.25488726859544 -442.50539141264858
291.19947376098708 965.28797764957346 -442.49988941624434 291.25171551517855
965.30498360601962 -442.49999764025074 0 null_surface null_surface nullbs
nullbs I I 0 0 0 I I } I I #
-121 coedge $-1 $124 $65 $196 $205 reversed $67 $-1 #
-122 coedge $-1 $101 $186 $65 $123 forward $187 $-1 #
-123 edge $206 $207 0 $69 0.50483977135995706 $65 $208 forward 7 unknown #
-124 coedge $-1 $66 $121 $209 $210 forward $67 $-1 #
-125 edge $211 $70 0 $212 0.055926394216042605 $113 $213 forward 7 unknown #
-126 face $214 $203 $67 $12 $-1 $215 forward single #
-127 point $-1 291.25171551517855 965.30498360601962 -442.49999764025074 #
-128 point $-1 290.76939984225476 965.43538849335823 -442.57907649874812 #
-129 rgb_color-st-attrib $-1 $-1 $-1 $73 0 0.75294131040573098
0.80000001192092896 #
-130 face $216 $217 $218 $13 $-1 $219 forward single #
-131 loop $-1 $-1 $220 $73 #
-132 plane-surface $-1 287.19799991544477 964.93900000000008
-443.10000000237159 1 0 1.0201341329078201e-10 0 1 0 forward_v F
0.047657734801291936 F 0.68434226519870811 F -10.60799999911211 F
0.20799999998259039 #
-133 coedge $-1 $221 $222 $223 $224 reversed $74 $-1 #
-134 coedge $-1 $141 $76 $143 $225 reversed $45 $-1 #
-135 coedge $-1 $76 $226 $227 $228 forward $45 $-1 #
-136 coedge $-1 $229 $230 $76 $137 forward $231 $-1 #
-137 edge $232 $233 0 $234 1 $136 $235 forward 7 unknown #
-138 coedge $-1 $236 $159 $77 $139 forward $237 $-1 #
-139 edge $238 $89 0 $147 0.50482604829495836 $138 $239 forward 7 unknown #
-140 coedge $-1 $78 $83 $151 $240 reversed $31 $-1 #
-141 coedge $-1 $241 $134 $78 $142 reversed $45 $-1 #
-142 edge $242 $243 0 $148 1 $141 $244 forward 7 unknown #
-143 coedge $-1 $245 $79 $134 $225 forward $145 $-1 #
-144 coedge $-1 $79 $246 $236 $247 reversed $145 $-1 #
-145 loop $-1 $-1 $143 $248 #
-146 ptlist-eye-attrib $-1 $-1 $-1 $80 #
-147 vertex $-1 $139 $249 #
-148 vertex $-1 $142 $250 #
-149 intcurve-curve $-1 forward { exactcur full nubs 3 open 4 0 3
0.01820999569820158 1 0.036802821057709559 1 0.055700386994266542 3
288.42860031887068 965.17450892181262 -442.57925235027557 288.43425620821802
965.17339934506072 -442.58115619840879 288.4454842511131 965.17094826916036
-442.58550716693298 288.46172722656547 965.16682189930259 -442.59355101966014
288.47209603946521 965.16390234323364 -442.5999258629995 288.47716084865442
965.16243182937728 -442.60337043473879 0 null_surface null_surface nullbs
nullbs I I 0 0 0 I I } I I #
-150 coedge $-1 $251 $81 $86 $162 forward $152 $-1 #
-151 coedge $-1 $81 $252 $140 $240 forward $152 $-1 #
-152 loop $-1 $-1 $81 $253 #
-153 ptlist-eye-attrib $-1 $-1 $-1 $82 #
-154 vertex $-1 $84 $254 #
-155 straight-curve $-1 287.46739951162942 965.17461145561413
-442.57907662517903 3.3062531201721868e-07 0.26077703774433303
1.2655277714657132e-07 F 0 F 1 #
-156 ptlist-eye-attrib $-1 $-1 $-1 $84 #
-157 intcurve-curve $-1 forward { exactcur full nubs 3 open 4 0 3
0.17380389165459523 1 0.34321824662996347 1 0.50803856192145835 3
287.46739951162942 965.17461145561413 -442.57907662517903 287.52128716351615
965.18558131959514 -442.5608501478585 287.6294363669013 965.20976142242978
-442.53104596768401 287.79098203264425 965.25488726859555 -442.50539141252671
287.89747376098711 965.28797764957346 -442.49988941612241 287.94971551517858
965.30498360601962 -442.49999764012881 0 null_surface null_surface nullbs
nullbs I I 0 0 0 I I } I I #
-158 coedge $-1 $161 $85 $246 $255 reversed $87 $-1 #
-159 coedge $-1 $138 $236 $85 $160 forward $237 $-1 #
-160 edge $256 $257 0 $89 0.50483977135996905 $85 $258 forward 7 unknown #
-161 coedge $-1 $86 $158 $259 $260 forward $87 $-1 #
-162 edge $261 $90 0 $262 0.055926394216071644 $150 $263 forward 7 unknown #
-163 face $264 $253 $87 $13 $-1 $265 forward single #
-164 point $-1 287.94971551517858 965.30498360601962 -442.49999764012881 #
-165 point $-1 287.46739984225474 965.43538849335823 -442.57907649862619 #
-166 rgb_color-st-attrib $-1 $-1 $-1 $93 0 0.75294131040573098
0.80000001192092896 #
-167 face $266 $267 $268 $12 $-1 $269 reversed single #
-168 loop $-1 $-1 $173 $93 #
-169 plane-surface $-1 285.19999991609234 966.61000000000013
-453.50000000163976 3.1546886923366206e-12 0 -1 1 0 3.1546886923366206e-12
forward_v F 5.2700000004227787 F 6.8299999999353274 F 0.98665773480129182 F
1.6233422651987082 #
-170 coedge $-1 $270 $271 $172 $272 reversed $94 $-1 #
-171 coedge $-1 $177 $96 $273 $274 forward $54 $-1 #
-172 coedge $-1 $96 $177 $170 $272 forward $54 $-1 #
-173 coedge $-1 $275 $276 $96 $174 forward $168 $-1 #
-174 edge $277 $278 0 $279 1 $173 $280 forward 7 unknown #
-175 edge $281 $111 0 $183 0.12842330894470008 $106 $282 forward 7 unknown #
-176 coedge $-1 $98 $191 $283 $284 reversed $36 $-1 #
-177 coedge $-1 $172 $171 $98 $178 reversed $54 $-1 #
-178 edge $285 $286 0 $184 1 $177 $287 forward 7 unknown #
-179 coedge $-1 $288 $99 $289 $290 forward $181 $-1 #
-180 coedge $-1 $99 $288 $195 $291 reversed $181 $-1 #
-181 loop $-1 $-1 $179 $267 #
-182 ptlist-eye-attrib $-1 $-1 $-1 $100 #
-183 vertex $-1 $175 $292 #
-184 vertex $-1 $178 $293 #
-185 straight-curve $-1 291.85445878902237 965.13078514776498 -442.700129046396
0.14554112531510555 -0.13078514680739772 -0.39987095428267594 F 0 F 1 #
-186 coedge $-1 $122 $101 $107 $197 forward $187 $-1 #
-187 loop $-1 $-1 $186 $294 #
-188 ptlist-eye-attrib $-1 $-1 $-1 $102 #
-189 intcurve-curve $-1 forward { exactcur full nubs 3 open 4 0 3
0.17244686898844067 1 0.34061162894662822 1 0.50482604829494404 3
291.25171551517855 965.30498360601973 -442.49999764025074 291.30647705196174
965.28750829692467 -442.50003350187836 291.41434833414081 965.25168559730969
-442.50613134593738 291.57519138311591 965.20864447172721 -442.53279961796761
291.67963705401473 965.18456708535302 -442.5619942239552 291.73060031887064
965.17450892181262 -442.57925235039744 0 null_surface null_surface nullbs
nullbs I I 0 0 0 I I } I I #
-190 edge $295 $193 0 $117 0.055930298673461734 $114 $296 forward 7 unknown #
-191 coedge $-1 $176 $104 $202 $297 reversed $36 $-1 #
-192 ptlist-eye-attrib $-1 $-1 $-1 $105 #
-193 vertex $-1 $105 $298 #
-194 straight-curve $-1 290.72068996760089 965.1624318433569
-442.60337054193042 1.0584708810534948 -1.3979615687276237e-08
1.0706969533202937e-07 F 0 F 1 #
-195 coedge $-1 $299 $106 $180 $291 forward $108 $-1 #
-196 coedge $-1 $107 $299 $121 $205 forward $108 $-1 #
-197 edge $300 $110 0 $207 1 $186 $301 forward 7 unknown #
-198 face $302 $294 $108 $12 $-1 $303 forward single #
-199 point $-1 291.73060031887064 965.17450892181262 -442.57925235039744 #
-200 point $-1 291.77916084865439 965.16243182937728 -442.60337043486072 #
-201 coedge $-1 $304 $113 $305 $306 forward $115 $-1 #
-202 coedge $-1 $114 $304 $191 $297 forward $115 $-1 #
-203 face $307 $308 $115 $12 $-1 $309 forward single #
-204 point $-1 290.76939951162944 965.17461145561413 -442.5790766253009 #
-205 edge $310 $311 0 $207 0.055693967886928902 $121 $312 forward 7 unknown #
-206 ptlist-eye-attrib $-1 $-1 $-1 $123 #
-207 vertex $-1 $197 $313 #
-208 intcurve-curve $-1 forward { exactcur full nubs 3 open 4 0 3
0.1700439687655971 1 0.33834655420081106 1 0.50483977135995706 3
291.73060031906925 965.43549107500326 -442.5792523504611 291.67782787792015
965.42507584922942 -442.5613815671706 291.57138268421994 965.40075269538579
-442.53185422798163 291.41062664376142 965.35697827657509 -442.50583333838972
291.30458611574477 965.32185658970911 -442.50003015458236 291.2517155151786
965.3049836060195 -442.49999764025074 0 null_surface null_surface nullbs nullbs
I I 0 0 0 I I } I I #
-209 coedge $-1 $314 $305 $124 $210 reversed $315 $-1 #
-210 edge $316 $311 0 $212 1 $209 $317 forward 7 unknown #
-211 ptlist-eye-attrib $-1 $-1 $-1 $125 #
-212 vertex $-1 $125 $318 #
-213 intcurve-curve $-1 forward { exactcur full nubs 3 open 4 0 3
0.018287260895594983 1 0.036956427497331169 1 0.055926394216042605 3
290.76939984225476 965.43538849335846 -442.57907649874812 290.76372399840903
965.43650991311131 -442.58099624527244 290.75245838381352 965.43898510596523
-442.58538160412365 290.73616690773656 965.44314655816993 -442.59348382139331
290.7257703990598 965.44608729035235 -442.59990148155083 290.72069359802248
965.44756741735478 -442.60336842825211 0 null_surface null_surface nullbs
nullbs I I 0 0 0 I I } I I #
-214 rgb_color-st-attrib $-1 $-1 $-1 $126 0 0.75294131040573098
0.80000001192092896 #
-215 spline-surface $-1 forward { exactsur full nubs 3 3 open open none none 2
2 -0.029351971895751734 3 1.032665179434143 3 -0.55032542065636036 3
0.55047334840009099 3 291.80032532296838 965.29983395003171 -442.50013487034863
291.80032532296474 965.36984149273735 -442.49714909380606 291.80032532296246
965.42335670403429 -442.54159875904236 291.80032532296843 965.45011252245661
-442.60957502131043 291.43339239994958 965.29983394875876 -442.50013487269058
291.43339239994594 965.3698414914644 -442.49714909614801 291.43339239994367
965.42335670276134 -442.54159876138431 291.43339239994964 965.45011252118366
-442.60957502365238 291.06645947693073 965.29983394748592 -442.50013487503259
291.06645947692709 965.36984149019156 -442.49714909849001 291.06645947692476
965.42335670148839 -442.54159876372631 291.06645947693073 965.4501125199107
-442.60957502599439 290.69952655391194 965.29983394621297 -442.50013487737453
290.6995265539083 965.36984148891861 -442.49714910083196 290.69952655390597
965.42335670021544 -442.54159876606826 290.69952655391194 965.45011251863775
-442.60957502833634 0 0 0 0 0 0 0 F -0.029351971895751734 F 1.032665179434143 F
-0.55032542065636036 F 0.55047334840009099 } I I I I #
-216 rgb_color-st-attrib $-1 $-1 $-1 $130 0 0.75294131040573098
0.80000001192092896 #
-217 face $319 $320 $321 $13 $-1 $322 reversed single #
-218 loop $-1 $-1 $223 $130 #
-219 plane-surface $-1 281.89799991609232 966.61000000000013
-453.50000000151783 3.1546886923366206e-12 0 -1 1 0 3.1546886923366206e-12
forward_v F 5.2700000004227787 F 6.8299999999353274 F 0.98665773480129182 F
1.6233422651987082 #
-220 coedge $-1 $323 $324 $222 $325 reversed $131 $-1 #
-221 coedge $-1 $227 $133 $326 $327 forward $74 $-1 #
-222 coedge $-1 $133 $227 $220 $325 forward $74 $-1 #
-223 coedge $-1 $328 $329 $133 $224 forward $218 $-1 #
-224 edge $330 $331 0 $332 1 $223 $333 forward 7 unknown #
-225 edge $334 $148 0 $233 0.12842330894460857 $143 $335 forward 7 unknown #
-226 coedge $-1 $135 $241 $336 $337 reversed $45 $-1 #
-227 coedge $-1 $222 $221 $135 $228 reversed $74 $-1 #
-228 edge $338 $339 0 $234 1 $227 $340 forward 7 unknown #
-229 coedge $-1 $341 $136 $342 $343 forward $231 $-1 #
-230 coedge $-1 $136 $341 $245 $344 reversed $231 $-1 #
-231 loop $-1 $-1 $229 $320 #
-232 ptlist-eye-attrib $-1 $-1 $-1 $137 #
-233 vertex $-1 $225 $345 #
-234 vertex $-1 $228 $346 #
-235 straight-curve $-1 288.55245878902235 965.13078514776498
-442.70012904627413 0.14554112531510555 -0.13078514680739772
-0.3998709542826191 F 0 F 1 #
-236 coedge $-1 $159 $138 $144 $247 forward $237 $-1 #
-237 loop $-1 $-1 $236 $347 #
-238 ptlist-eye-attrib $-1 $-1 $-1 $139 #
-239 intcurve-curve $-1 forward { exactcur full nubs 3 open 4 0 3
0.17244686898838654 1 0.34061162894657404 1 0.50482604829495836 3
287.94971551517858 965.30498360601973 -442.49999764012881 288.00447705196177
965.28750829692467 -442.50003350175643 288.11234833414085 965.2516855973098
-442.50613134581567 288.27319138311589 965.2086444717271 -442.53279961784557
288.37763705401471 965.18456708535302 -442.56199422383332 288.42860031887068
965.17450892181262 -442.57925235027557 0 null_surface null_surface nullbs
nullbs I I 0 0 0 I I } I I #
-240 edge $348 $243 0 $154 0.055930298673432702 $151 $349 forward 7 unknown #
-241 coedge $-1 $226 $141 $252 $350 reversed $45 $-1 #
-242 ptlist-eye-attrib $-1 $-1 $-1 $142 #
-243 vertex $-1 $142 $351 #
-244 straight-curve $-1 287.41868996760087 965.1624318433569
-442.60337054180854 1.0584708810535517 -1.3979615687276237e-08
1.0706969533202937e-07 F 0 F 1 #
-245 coedge $-1 $352 $143 $230 $344 forward $145 $-1 #
-246 coedge $-1 $144 $352 $158 $255 forward $145 $-1 #
-247 edge $353 $147 0 $257 1 $236 $354 forward 7 unknown #
-248 face $355 $347 $145 $13 $-1 $356 forward single #
-249 point $-1 288.42860031887068 965.17450892181262 -442.57925235027557 #
-250 point $-1 288.47716084865442 965.16243182937728 -442.60337043473879 #
-251 coedge $-1 $357 $150 $358 $359 forward $152 $-1 #
-252 coedge $-1 $151 $357 $241 $350 forward $152 $-1 #
-253 face $360 $361 $152 $13 $-1 $362 forward single #
-254 point $-1 287.46739951162942 965.17461145561413 -442.57907662517903 #
-255 edge $363 $364 0 $257 0.055693967886926932 $158 $365 forward 7 unknown #
-256 ptlist-eye-attrib $-1 $-1 $-1 $160 #
-257 vertex $-1 $247 $366 #
-258 intcurve-curve $-1 forward { exactcur full nubs 3 open 4 0 3
0.17004396876561198 1 0.33834655420082593 1 0.50483977135996905 3
288.42860031906923 965.43549107500326 -442.57925235033923 288.37582787792013
965.42507584922942 -442.56138156704873 288.26938268421992 965.40075269538568
-442.5318542278597 288.1086266437614 965.35697827657521 -442.50583333826773
288.00258611574475 965.32185658970911 -442.50003015446049 287.94971551517858
965.3049836060195 -442.49999764012887 0 null_surface null_surface nullbs nullbs
I I 0 0 0 I I } I I #
-259 coedge $-1 $367 $358 $161 $260 reversed $368 $-1 #
-260 edge $369 $364 0 $262 1 $259 $370 forward 7 unknown #
-261 ptlist-eye-attrib $-1 $-1 $-1 $162 #
-262 vertex $-1 $162 $371 #
-263 intcurve-curve $-1 forward { exactcur full nubs 3 open 4 0 3
0.018287260895594983 1 0.036956427497331169 1 0.055926394216071644 3
287.46739984225474 965.43538849335846 -442.57907649862619 287.46172399840901
965.43650991311131 -442.58099624515052 287.4504583838135 965.43898510596546
-442.58538160400184 287.43416690773665 965.44314655816981 -442.59348382127132
287.42377039905978 965.44608729035235 -442.59990148142896 287.41869359802246
965.44756741735478 -442.60336842813024 0 null_surface null_surface nullbs
nullbs I I 0 0 0 I I } I I #
-264 rgb_color-st-attrib $-1 $-1 $-1 $163 0 0.75294131040573098
0.80000001192092896 #
-265 spline-surface $-1 forward { exactsur full nubs 3 3 open open none none 2
2 -0.029351971895751734 3 1.032665179434143 3 -0.55032542065636036 3
0.55047334840009099 3 288.49832532296836 965.29983395003171 -442.5001348702267
288.49832532296472 965.36984149273735 -442.49714909368413 288.49832532296244
965.42335670403429 -442.54159875892043 288.49832532296841 965.45011252245661
-442.6095750211885 288.13139239994956 965.29983394875876 -442.50013487256865
288.13139239994592 965.3698414914644 -442.49714909602608 288.13139239994365
965.42335670276134 -442.54159876126238 288.13139239994962 965.45011252118366
-442.60957502353045 287.76445947693071 965.29983394748592 -442.50013487491066
287.76445947692707 965.36984149019156 -442.49714909836808 287.76445947692474
965.42335670148839 -442.54159876360438 287.76445947693071 965.4501125199107
-442.60957502587246 287.39752655391192 965.29983394621297 -442.50013487725261
287.39752655390828 965.36984148891861 -442.49714910071003 287.39752655390595
965.42335670021544 -442.54159876594633 287.39752655391192 965.45011251863775
-442.60957502821441 0 0 0 0 0 0 0 F -0.029351971895751734 F 1.032665179434143 F
-0.55032542065636036 F 0.55047334840009099 } I I I I #
-266 rgb_color-st-attrib $-1 $-1 $-1 $167 0 0.75294131040573098
0.80000001192092896 #
-267 face $372 $198 $181 $12 $-1 $373 reversed single #
-268 loop $-1 $-1 $374 $167 #
-269 plane-surface $-1 291.9999999160932 964.93900000000008 -453.80000000245502
-1 0 -1.8731122568505798e-10 0 -1 0 forward_v F -0.68434226519870811 F
-0.047657734801291936 F 0.092000000813483807 F 10.908000002022264 #
-270 coedge $-1 $375 $170 $376 $377 forward $94 $-1 #
-271 coedge $-1 $170 $375 $275 $378 forward $94 $-1 #
-272 edge $379 $286 0 $279 1 $170 $380 forward 7 unknown #
-273 coedge $-1 $381 $289 $171 $274 reversed $268 $-1 #
-274 edge $382 $278 0 $184 1 $273 $383 forward 7 unknown #
-275 coedge $-1 $384 $173 $271 $378 reversed $168 $-1 #
-276 coedge $-1 $173 $384 $381 $385 reversed $168 $-1 #
-277 ptlist-eye-attrib $-1 $-1 $-1 $174 #
-278 vertex $-1 $274 $386 #
-279 vertex $-1 $272 $387 #
-280 straight-curve $-1 291.99999991571235 965.00000000000011
-453.50000000161913 -1.4999999993834763 0 -3.0695446184836328e-12 F 0 F 1 #
-281 ptlist-eye-attrib $-1 $-1 $-1 $175 #
-282 intcurve-curve $-1 forward { exactcur full nubs 3 open 4 0 3
0.042055309670854371 1 0.084881215807899757 1 0.12842330894470008 3
291.77916084865433 965.16243182937728 -442.60337043486072 291.79056129128628
965.15989592764151 -442.61112386466203 291.81189090443792 965.15400170193311
-442.62914525499036 291.83752568808683 965.14323841517569 -442.6620536216945
291.84971375040084 965.13504910110589 -442.68709215997416 291.85445878902237
965.13078514776498 -442.70012904639611 0 null_surface null_surface nullbs
nullbs I I 0 0 0 I I } I I #
-283 coedge $-1 $388 $376 $176 $284 forward $389 $-1 #
-284 edge $390 $286 0 $391 1 $283 $392 forward 7 unknown #
-285 ptlist-eye-attrib $-1 $-1 $-1 $178 #
-286 vertex $-1 $178 $393 #
-287 straight-curve $-1 290.49999991540312 965.00000000081764
-443.10000000163689 1.4999999989343564 1.4006218407303095e-10
9.5820951173664071e-10 F 0 F 1 #
-288 coedge $-1 $180 $179 $394 $395 forward $181 $-1 #
-289 coedge $-1 $273 $374 $179 $290 reversed $268 $-1 #
-290 edge $396 $184 0 $397 1 $179 $398 forward 7 unknown #
-291 edge $399 $183 0 $400 1 $195 $401 forward 7 unknown #
-292 point $-1 291.85445878902237 965.13078514776498 -442.70012904639611 #
-293 point $-1 291.99999991433748 965.0000000009577 -443.10000000067862 #
-294 face $402 $126 $187 $12 $-1 $403 forward single #
-295 ptlist-eye-attrib $-1 $-1 $-1 $190 #
-296 intcurve-curve $-1 forward { exactcur full nubs 3 open 4 0 3
0.018973410169983003 1 0.037642918859532574 1 0.055930298673461734 3
290.72068996760089 965.1624318433569 -442.60337054193053 290.72576770511591
965.16391217942123 -442.59990296231894 290.73616527328795 965.16685336941259
-442.59348475385559 290.75245786730829 965.17101483148849 -442.58538179835739
290.76372362989963 965.1734900340698 -442.58099638463881 290.76939951162944
965.17461145561413 -442.5790766253009 0 null_surface null_surface nullbs nullbs
I I 0 0 0 I I } I I #
-297 edge $404 $391 0 $193 0.12832187745129098 $202 $405 forward 7 unknown #
-298 point $-1 290.72068996760089 965.1624318433569 -442.60337054193042 #
-299 coedge $-1 $196 $195 $314 $406 forward $108 $-1 #
-300 ptlist-eye-attrib $-1 $-1 $-1 $197 #
-301 straight-curve $-1 291.73060031887064 965.17450892181262
-442.57925235039744 1.986109054996632e-10 0.26098215319086648
-6.3664629124104977e-11 F 0 F 1 #
-302 rgb_color-st-attrib $-1 $-1 $-1 $198 0 0.75294131040573098
0.80000001192092896 #
-303 cone-surface $-1 291.66693694090623 964.93900000000008 -442.76838141762158
0 -1 0 -0.19955658269978499 0 0 1 I I 0 1 1 forward I I I I #
-304 coedge $-1 $202 $201 $388 $407 forward $115 $-1 #
-305 coedge $-1 $209 $408 $201 $306 reversed $315 $-1 #
-306 edge $409 $212 0 $410 0.12832607700231888 $305 $411 forward 7 unknown #
-307 rgb_color-st-attrib $-1 $-1 $-1 $203 0 0.75294131040573098
0.80000001192092896 #
-308 face $412 $413 $389 $12 $-1 $414 reversed single #
-309 cone-surface $-1 290.83347956196599 964.93900000000008 -442.76853307405958
0 -1 0 -0.19999999722914696 0 0 1 I I 0 1 1 forward I I I I #
-310 ptlist-eye-attrib $-1 $-1 $-1 $205 #
-311 vertex $-1 $205 $415 #
-312 intcurve-curve $-1 forward { exactcur full nubs 3 open 4 0 3
0.018896306037239293 1 0.037486642794289059 1 0.055693967886928902 3
291.77915560192804 965.44756692398209 -442.60336694678131 291.77409100387143
965.446096523954 -442.5999227840158 291.76372309734745 965.44317736839253
-442.59354874943301 291.7474818582449 965.43905126176924 -442.58550621029423
291.73625537892281 965.43660048916286 -442.58115591937559 291.73060031906925
965.43549107500326 -442.5792523504611 0 null_surface null_surface nullbs nullbs
I I 0 0 0 I I } I I #
-313 point $-1 291.73060031906925 965.43549107500326 -442.5792523504611 #
-314 coedge $-1 $394 $209 $299 $406 reversed $315 $-1 #
-315 loop $-1 $-1 $394 $413 #
-316 ptlist-eye-attrib $-1 $-1 $-1 $210 #
-317 straight-curve $-1 291.77915560192804 965.44756692398209
-442.60336694678131 -1.0584620039056176 4.9337256768922089e-07
-1.4814709174970631e-06 F 0 F 1 #
-318 point $-1 290.72069359802248 965.44756741735466 -442.60336842825211 #
-319 rgb_color-st-attrib $-1 $-1 $-1 $217 0 0.75294131040573098
0.80000001192092896 #
-320 face $416 $248 $231 $13 $-1 $417 reversed single #
-321 loop $-1 $-1 $418 $217 #
-322 plane-surface $-1 288.69799991609318 964.93900000000008
-453.80000000233309 -1 0 -1.8731122568505798e-10 0 -1 0 forward_v F
-0.68434226519870811 F -0.047657734801291936 F 0.092000000813483807 F
10.908000002022264 #
-323 coedge $-1 $419 $220 $420 $421 forward $131 $-1 #
-324 coedge $-1 $220 $419 $328 $422 forward $131 $-1 #
-325 edge $423 $339 0 $332 1 $220 $424 forward 7 unknown #
-326 coedge $-1 $425 $342 $221 $327 reversed $321 $-1 #
-327 edge $426 $331 0 $234 1 $326 $427 forward 7 unknown #
-328 coedge $-1 $428 $223 $324 $422 reversed $218 $-1 #
-329 coedge $-1 $223 $428 $425 $429 reversed $218 $-1 #
-330 ptlist-eye-attrib $-1 $-1 $-1 $224 #
-331 vertex $-1 $327 $430 #
-332 vertex $-1 $325 $431 #
-333 straight-curve $-1 288.69799991571233 965.00000000000011
-453.50000000149714 -1.4999999993834763 0 -3.1263880373444408e-12 F 0 F 1 #
-334 ptlist-eye-attrib $-1 $-1 $-1 $225 #
-335 intcurve-curve $-1 forward { exactcur full nubs 3 open 4 0 3
0.04205530967081185 1 0.084881215807857235 1 0.12842330894460857 3
288.47716084865436 965.16243182937728 -442.60337043473879 288.48856129128632
965.15989592764151 -442.6111238645401 288.5098909044379 965.15400170193288
-442.62914525486838 288.53552568808686 965.14323841517603 -442.66205362157257
288.54771375040082 965.13504910110589 -442.68709215985217 288.55245878902235
965.13078514776498 -442.70012904627413 0 null_surface null_surface nullbs
nullbs I I 0 0 0 I I } I I #
-336 coedge $-1 $432 $420 $226 $337 forward $433 $-1 #
-337 edge $434 $339 0 $435 1 $336 $436 forward 7 unknown #
-338 ptlist-eye-attrib $-1 $-1 $-1 $228 #
-339 vertex $-1 $228 $437 #
-340 straight-curve $-1 287.1979999154031 965.00000000081764 -443.1000000015149
1.4999999989343564 1.4006218407303095e-10 9.581526683177799e-10 F 0 F 1 #
-341 coedge $-1 $230 $229 $438 $439 forward $231 $-1 #
-342 coedge $-1 $326 $418 $229 $343 reversed $321 $-1 #
-343 edge $440 $234 0 $441 1 $229 $442 forward 7 unknown #
-344 edge $443 $233 0 $444 1 $245 $445 forward 7 unknown #
-345 point $-1 288.55245878902235 965.13078514776498 -442.70012904627413 #
-346 point $-1 288.6979999143374 965.0000000009577 -443.10000000055675 #
-347 face $446 $163 $237 $13 $-1 $447 forward single #
-348 ptlist-eye-attrib $-1 $-1 $-1 $240 #
-349 intcurve-curve $-1 forward { exactcur full nubs 3 open 4 0 3
0.018973410169953964 1 0.037642918859503535 1 0.055930298673432702 3
287.41868996760087 965.1624318433569 -442.60337054180854 287.42376770511589
965.16391217942123 -442.59990296219695 287.43416527328793 965.16685336941259
-442.59348475373372 287.45045786730827 965.17101483148838 -442.5853817982354
287.46172362989961 965.1734900340698 -442.58099638451688 287.46739951162942
965.17461145561413 -442.57907662517897 0 null_surface null_surface nullbs
nullbs I I 0 0 0 I I } I I #
-350 edge $448 $435 0 $243 0.12832187745135856 $252 $449 forward 7 unknown #
-351 point $-1 287.41868996760087 965.1624318433569 -442.60337054180854 #
-352 coedge $-1 $246 $245 $367 $450 forward $145 $-1 #
-353 ptlist-eye-attrib $-1 $-1 $-1 $247 #
-354 straight-curve $-1 288.42860031887062 965.17450892181262
-442.57925235027557 1.986109054996632e-10 0.26098215319086648
-6.3664629124104977e-11 F 0 F 1 #
-355 rgb_color-st-attrib $-1 $-1 $-1 $248 0 0.75294131040573098
0.80000001192092896 #
-356 cone-surface $-1 288.3649369409062 964.93900000000008 -442.76838141749965
0 -1 0 -0.19955658269978499 0 0 1 I I 0 1 1 forward I I I I #
-357 coedge $-1 $252 $251 $432 $451 forward $152 $-1 #
-358 coedge $-1 $259 $452 $251 $359 reversed $368 $-1 #
-359 edge $453 $262 0 $454 0.12832607700230686 $358 $455 forward 7 unknown #
-360 rgb_color-st-attrib $-1 $-1 $-1 $253 0 0.75294131040573098
0.80000001192092896 #
-361 face $456 $457 $433 $13 $-1 $458 reversed single #
-362 cone-surface $-1 287.53147956196597 964.93900000000008 -442.76853307393765
0 -1 0 -0.19999999722914696 0 0 1 I I 0 1 1 forward I I I I #
-363 ptlist-eye-attrib $-1 $-1 $-1 $255 #
-364 vertex $-1 $255 $459 #
-365 intcurve-curve $-1 forward { exactcur full nubs 3 open 4 0 3
0.018896306037257445 1 0.037486642794307211 1 0.055693967886926932 3
288.47715560192808 965.44756692398209 -442.60336694665932 288.47209100387147
965.446096523954 -442.59992278389382 288.46172309734737 965.44317736839253
-442.59354874931114 288.44548185824488 965.43905126176924 -442.5855062101723
288.43425537892278 965.43660048916274 -442.58115591925372 288.42860031906923
965.43549107500326 -442.57925235033923 0 null_surface null_surface nullbs
nullbs I I 0 0 0 I I } I I #
-366 point $-1 288.42860031906923 965.43549107500326 -442.57925235033923 #
-367 coedge $-1 $438 $259 $352 $450 reversed $368 $-1 #
-368 loop $-1 $-1 $438 $457 #
-369 ptlist-eye-attrib $-1 $-1 $-1 $260 #
-370 straight-curve $-1 288.47715560192808 965.44756692398209
-442.60336694665943 -1.0584620039056176 4.9337256768922089e-07
-1.4814708038102253e-06 F 0 F 1 #
-371 point $-1 287.41869359802246 965.44756741735466 -442.60336842813024 #
-372 rgb_color-st-attrib $-1 $-1 $-1 $267 0 0.75294131040573098
0.80000001192092896 #
-373 plane-surface $-1 291.99999991525169 964.93900000000008
-443.10000000400402 -0.93969262070096127 0 -0.34202014355905913 0 -1 0
forward_v F -0.68434226066433634 F -0.047657736827470779 F
-0.013342261467009611 F 0.4388760501820792 #
-374 coedge $-1 $289 $381 $460 $461 reversed $268 $-1 #
-375 coedge $-1 $271 $270 $462 $463 reversed $94 $-1 #
-376 coedge $-1 $283 $464 $270 $377 reversed $389 $-1 #
-377 edge $465 $286 0 $466 1 $376 $467 forward 7 unknown #
-378 edge $468 $469 0 $279 1 $275 $470 forward 7 unknown #
-379 ptlist-eye-attrib $-1 $-1 $-1 $272 #
-380 straight-curve $-1 290.49999991540312 965.00000000081764
-443.10000000163694 9.2575191956711933e-10 -8.1752205005614087e-10
-10.399999999985255 F 0 F 1 #
-381 coedge $-1 $374 $273 $276 $385 forward $268 $-1 #
-382 ptlist-eye-attrib $-1 $-1 $-1 $274 #
-383 straight-curve $-1 291.99999991571235 965.00000000000011
-453.50000000161913 -1.3748717719863635e-09 9.5758423412917182e-10
10.400000000940508 F 0 F 1 #
-384 coedge $-1 $276 $275 $471 $472 forward $168 $-1 #
-385 edge $473 $278 0 $474 1 $381 $475 forward 7 unknown #
-386 point $-1 291.99999991571235 965.00000000000011 -453.50000000161913 #
-387 point $-1 290.49999991632887 965.00000000000011 -453.5000000016222 #
-388 coedge $-1 $464 $283 $304 $407 reversed $389 $-1 #
-389 loop $-1 $-1 $388 $308 #
-390 ptlist-eye-attrib $-1 $-1 $-1 $284 #
-391 vertex $-1 $284 $476 #
-392 straight-curve $-1 290.49999991540307 965.00000000081764
-443.10000000163689 0.14554112501042482 0.13078514697667742 0.39987095529727412
F 0 F 1 #
-393 point $-1 290.49999991540312 965.00000000081764 -443.10000000163694 #
-394 coedge $-1 $477 $314 $288 $395 reversed $315 $-1 #
-395 edge $478 $397 0 $400 1 $394 $479 forward 7 unknown #
-396 ptlist-eye-attrib $-1 $-1 $-1 $290 #
-397 vertex $-1 $290 $480 #
-398 straight-curve $-1 291.99999991433748 965.00000000095758
-443.10000000067862 6.9519501266768202e-11 0.60999999689329343
-1.9110757421003655e-10 F 0 F 1 #
-399 ptlist-eye-attrib $-1 $-1 $-1 $291 #
-400 vertex $-1 $291 $481 #
-401 straight-curve $-1 291.85445878902237 965.13078514776498
-442.70012904639611 5.6843418860808015e-14 0.34842970194745249
-1.1368683772161603e-13 F 0 F 1 #
-402 rgb_color-st-attrib $-1 $-1 $-1 $294 0 0.75294131040573098
0.80000001192092896 #
-403 cone-surface $-1 291.2494804150295 964.93900000000008 -443.9999999136927 0
-1 0 -1.5 0 0 1 I I 0 1 1 forward I I I I #
-404 ptlist-eye-attrib $-1 $-1 $-1 $297 #
-405 intcurve-curve $-1 forward { exactcur full nubs 3 open 4 0 3
0.043510054114926235 1 0.086302252993444115 1 0.12832187745129098 3
290.64554104041343 965.1307851477942 -442.70012904633961 290.65028258753938
965.13504596364635 -442.68710175267836 290.66245294379269 965.143229785328
-442.66208002804785 290.68803472145237 965.15399138632574 -442.62917672343707
290.70931507592906 965.15989120983011 -442.61113843901626 290.72068996760083
965.1624318433569 -442.60337054193047 0 null_surface null_surface nullbs nullbs
I I 0 0 0 I I } I I #
-406 edge $482 $400 0 $311 0.12842969105053978 $314 $483 forward 7 unknown #
-407 edge $484 $410 0 $391 1 $388 $485 forward 7 unknown #
-408 coedge $-1 $305 $477 $464 $486 reversed $315 $-1 #
-409 ptlist-eye-attrib $-1 $-1 $-1 $306 #
-410 vertex $-1 $407 $487 #
-411 intcurve-curve $-1 forward { exactcur full nubs 3 open 4 0 3
0.042027868753095408 1 0.084820405545758398 1 0.12832607700231888 3
290.72069359802248 965.44756741735466 -442.60336842825211 290.70931648196904
965.45010855255191 -442.61113785917559 290.68803333364417 965.45600883588008
-442.62917734442459 290.66245166342981 965.46677101605133 -442.6620825052288
290.65028210993523 965.47495446303719 -442.68710306488509 290.64554104041349
965.47921484970868 -442.70012904633961 0 null_surface null_surface nullbs
nullbs I I 0 0 0 I I } I I #
-412 rgb_color-st-attrib $-1 $-1 $-1 $308 0 0.75294131040573098
0.80000001192092896 #
-413 face $488 $489 $315 $12 $-1 $490 forward single #
-414 plane-surface $-1 290.64554104041349 964.93900000000008
-442.70012904633973 0.93969262078145521 0 -0.34202014333790398
0.34202014333790398 0 0.93969262078145521 forward_v F -0.43887604838461347 F
0.013342265198708065 F -0.68434226126965014 F -0.047657736253871312 #
-415 point $-1 291.77915560192804 965.44756692398232 -442.60336694678131 #
-416 rgb_color-st-attrib $-1 $-1 $-1 $320 0 0.75294131040573098
0.80000001192092896 #
-417 plane-surface $-1 288.69799991525167 964.93900000000008
-443.10000000388209 -0.93969262070096127 0 -0.34202014355905913 0 -1 0
forward_v F -0.68434226066433634 F -0.047657736827470779 F
-0.013342261467009611 F 0.4388760501820792 #
-418 coedge $-1 $342 $425 $491 $492 reversed $321 $-1 #
-419 coedge $-1 $324 $323 $493 $494 reversed $131 $-1 #
-420 coedge $-1 $336 $495 $323 $421 reversed $433 $-1 #
-421 edge $496 $339 0 $497 1 $420 $498 forward 7 unknown #
-422 edge $499 $500 0 $332 1 $328 $501 forward 7 unknown #
-423 ptlist-eye-attrib $-1 $-1 $-1 $325 #
-424 straight-curve $-1 287.1979999154031 965.00000000081764
-443.10000000151496 9.2575191956711933e-10 -8.1752205005614087e-10
-10.399999999985369 F 0 F 1 #
-425 coedge $-1 $418 $326 $329 $429 forward $321 $-1 #
-426 ptlist-eye-attrib $-1 $-1 $-1 $327 #
-427 straight-curve $-1 288.69799991571227 965.00000000000011
-453.50000000149726 -1.3748717719863635e-09 9.5758423412917182e-10
10.400000000940508 F 0 F 1 #
-428 coedge $-1 $329 $328 $502 $503 forward $218 $-1 #
-429 edge $504 $331 0 $505 1 $425 $506 forward 7 unknown #
-430 point $-1 288.69799991571233 965.00000000000011 -453.50000000149714 #
-431 point $-1 287.19799991632885 965.00000000000011 -453.50000000150033 #
-432 coedge $-1 $495 $336 $357 $451 reversed $433 $-1 #
-433 loop $-1 $-1 $432 $361 #
-434 ptlist-eye-attrib $-1 $-1 $-1 $337 #
-435 vertex $-1 $337 $507 #
-436 straight-curve $-1 287.1979999154031 965.00000000081764 -443.1000000015149
0.14554112501031113 0.13078514697667742 0.39987095529721728 F 0 F 1 #
-437 point $-1 287.1979999154031 965.00000000081764 -443.10000000151496 #
-438 coedge $-1 $508 $367 $341 $439 reversed $368 $-1 #
-439 edge $509 $441 0 $444 1 $438 $510 forward 7 unknown #
-440 ptlist-eye-attrib $-1 $-1 $-1 $343 #
-441 vertex $-1 $343 $511 #
-442 straight-curve $-1 288.69799991433746 965.00000000095758
-443.10000000055669 6.9519501266768202e-11 0.60999999689329343
-1.9105073079117574e-10 F 0 F 1 #
-443 ptlist-eye-attrib $-1 $-1 $-1 $344 #
-444 vertex $-1 $344 $512 #
-445 straight-curve $-1 288.55245878902235 965.13078514776498
-442.70012904627413 5.6843418860808015e-14 0.34842970194745249
-1.7053025658242404e-13 F 0 F 1 #
-446 rgb_color-st-attrib $-1 $-1 $-1 $347 0 0.75294131040573098
0.80000001192092896 #
-447 cone-surface $-1 287.94748041502947 964.93900000000008 -443.99999991357078
0 -1 0 -1.5 0 0 1 I I 0 1 1 forward I I I I #
-448 ptlist-eye-attrib $-1 $-1 $-1 $350 #
-449 intcurve-curve $-1 forward { exactcur full nubs 3 open 4 0 3
0.04351005411495136 1 0.086302252993469247 1 0.12832187745135856 3
287.34354104041347 965.1307851477942 -442.70012904621774 287.34828258753942
965.13504596364635 -442.68710175255649 287.36045294379255 965.14322978532778
-442.66208002792575 287.3860347214524 965.15399138632597 -442.62917672331508
287.40731507592909 965.15989120983011 -442.61113843889439 287.41868996760087
965.1624318433569 -442.60337054180854 0 null_surface null_surface nullbs nullbs
I I 0 0 0 I I } I I #
-450 edge $513 $444 0 $364 0.12842969105060603 $367 $514 forward 7 unknown #
-451 edge $515 $454 0 $435 1 $432 $516 forward 7 unknown #
-452 coedge $-1 $358 $508 $495 $517 reversed $368 $-1 #
-453 ptlist-eye-attrib $-1 $-1 $-1 $359 #
-454 vertex $-1 $451 $518 #
-455 intcurve-curve $-1 forward { exactcur full nubs 3 open 4 0 3
0.042027868753059493 1 0.084820405545722483 1 0.12832607700230686 3
287.41869359802246 965.44756741735466 -442.60336842813024 287.40731648196908
965.45010855255191 -442.61113785905371 287.38603333364415 965.45600883588008
-442.62917734430278 287.36045166342967 965.46677101605087 -442.66208250510658
287.34828210993516 965.47495446303719 -442.68710306476316 287.34354104041341
965.47921484970868 -442.70012904621768 0 null_surface null_surface nullbs
nullbs I I 0 0 0 I I } I I #
-456 rgb_color-st-attrib $-1 $-1 $-1 $361 0 0.75294131040573098
0.80000001192092896 #
-457 face $519 $520 $368 $13 $-1 $521 forward single #
-458 plane-surface $-1 287.34354104041347 964.93900000000008 -442.7001290462178
0.93969262078145521 0 -0.34202014333790398 0.34202014333790398 0
0.93969262078145521 forward_v F -0.43887604838461347 F 0.013342265198708065 F
-0.68434226126965014 F -0.047657736253871312 #
-459 point $-1 288.47715560192808 965.44756692398232 -442.60336694665932 #
-460 coedge $-1 $471 $522 $374 $461 forward $523 $-1 #
-461 edge $524 $397 0 $474 1 $460 $525 forward 7 unknown #
-462 coedge $-1 $522 $471 $375 $463 forward $523 $-1 #
-463 edge $526 $469 0 $466 1 $462 $527 forward 7 unknown #
-464 coedge $-1 $376 $388 $408 $486 forward $389 $-1 #
-465 ptlist-eye-attrib $-1 $-1 $-1 $377 #
-466 vertex $-1 $463 $528 #
-467 straight-curve $-1 290.49999991540307 965.00000000081764
-443.10000000163689 -6.4460436988156289e-11 0.60999999718478648
-1.7712409317027777e-10 F 0 F 1 #
-468 ptlist-eye-attrib $-1 $-1 $-1 $378 #
-469 vertex $-1 $378 $529 #
-470 straight-curve $-1 290.49999991632887 965.61000000000024
-453.5000000016222 0 -0.61000000000012733 0 F 0 F 1 #
-471 coedge $-1 $462 $460 $384 $472 reversed $523 $-1 #
-472 edge $530 $469 0 $474 1 $471 $531 forward 7 unknown #
-473 ptlist-eye-attrib $-1 $-1 $-1 $385 #
-474 vertex $-1 $385 $532 #
-475 straight-curve $-1 291.99999991571235 965.00000000000011
-453.50000000161913 0 0.61000000000012733 0 F 0 F 1 #
-476 point $-1 290.64554104041349 965.13078514779431 -442.70012904633961 #
-477 coedge $-1 $408 $394 $522 $533 forward $315 $-1 #
-478 ptlist-eye-attrib $-1 $-1 $-1 $395 #
-479 straight-curve $-1 291.999999914407 965.60999999785099 -443.10000000086973
-0.1455411253845682 -0.13078514813855691 0.3998709544734993 F 0 F 1 #
-480 point $-1 291.999999914407 965.60999999785099 -443.10000000086973 #
-481 point $-1 291.85445878902243 965.47921484971243 -442.70012904639617 #
-482 ptlist-eye-attrib $-1 $-1 $-1 $406 #
-483 intcurve-curve $-1 forward { exactcur full nubs 3 open 4 0 3
0.043549446700564237 1 0.086377845899715519 1 0.12842969105053978 3
291.85445878902243 965.47921484971243 -442.70012904639617 291.84971294903971
965.47495017625749 -442.68708995825256 291.83752301667909 965.46675995513328
-442.66204869068508 291.81188549713397 965.45599651436714 -442.62913965902555
291.79055540280876 965.45010248759525 -442.61111934278364 291.77915560192804
965.44756692398232 -442.60336694678131 0 null_surface null_surface nullbs
nullbs I I 0 0 0 I I } I I #
-484 ptlist-eye-attrib $-1 $-1 $-1 $407 #
-485 straight-curve $-1 290.64554104041349 965.47921484970857
-442.70012904633961 0 -0.34842970191425593 0 F 0 F 1 #
-486 edge $534 $410 0 $466 1 $408 $535 forward 7 unknown #
-487 point $-1 290.64554104041349 965.47921484970857 -442.70012904633961 #
-488 rgb_color-st-attrib $-1 $-1 $-1 $413 0 0.75294131040573098
0.80000001192092896 #
-489 face $536 $-1 $523 $12 $-1 $537 forward single #
-490 plane-surface $-1 295.74999991528762 965.447568174916 -442.60337045846103
1.1477145967864797e-11 0.95045452676168374 0.31086362372947995 -1
-1.0303627905945173e-26 3.6920196162457591e-11 forward_v F 3.7200000007793403 F
5.2800000002171181 F -0.53586020754610209 F 0.013345714632778165 #
-491 coedge $-1 $502 $538 $418 $492 forward $539 $-1 #
-492 edge $540 $441 0 $505 1 $491 $541 forward 7 unknown #
-493 coedge $-1 $538 $502 $419 $494 forward $539 $-1 #
-494 edge $542 $500 0 $497 1 $493 $543 forward 7 unknown #
-495 coedge $-1 $420 $432 $452 $517 forward $433 $-1 #
-496 ptlist-eye-attrib $-1 $-1 $-1 $421 #
-497 vertex $-1 $494 $544 #
-498 straight-curve $-1 287.1979999154031 965.00000000081764
-443.10000000151496 -6.4517280407017097e-11 0.60999999718478648
-1.7706724975141697e-10 F 0 F 1 #
-499 ptlist-eye-attrib $-1 $-1 $-1 $422 #
-500 vertex $-1 $422 $545 #
-501 straight-curve $-1 287.19799991632885 965.61000000000024
-453.50000000150033 0 -0.61000000000012733 0 F 0 F 1 #
-502 coedge $-1 $493 $491 $428 $503 reversed $539 $-1 #
-503 edge $546 $500 0 $505 1 $502 $547 forward 7 unknown #
-504 ptlist-eye-attrib $-1 $-1 $-1 $429 #
-505 vertex $-1 $429 $548 #
-506 straight-curve $-1 288.69799991571233 965.00000000000011
-453.50000000149714 0 0.61000000000012733 0 F 0 F 1 #
-507 point $-1 287.34354104041341 965.13078514779431 -442.70012904621768 #
-508 coedge $-1 $452 $438 $538 $549 forward $368 $-1 #
-509 ptlist-eye-attrib $-1 $-1 $-1 $439 #
-510 straight-curve $-1 288.69799991440698 965.60999999785099
-443.10000000074774 -0.14554112538451136 -0.13078514813855691
0.39987095447344245 F 0 F 1 #
-511 point $-1 288.69799991440698 965.60999999785099 -443.10000000074774 #
-512 point $-1 288.55245878902247 965.47921484971243 -442.7001290462743 #
-513 ptlist-eye-attrib $-1 $-1 $-1 $450 #
-514 intcurve-curve $-1 forward { exactcur full nubs 3 open 4 0 3
0.043549446700637165 1 0.086377845899788447 1 0.12842969105060603 3
288.55245878902247 965.47921484971243 -442.7001290462743 288.54771294903975
965.47495017625749 -442.68708995813063 288.53552301667901 965.4667599551334
-442.66204869056321 288.50988549713395 965.4559965143668 -442.62913965890351
288.4885554028088 965.45010248759513 -442.61111934266165 288.47715560192808
965.44756692398232 -442.60336694665932 0 null_surface null_surface nullbs
nullbs I I 0 0 0 I I } I I #
-515 ptlist-eye-attrib $-1 $-1 $-1 $451 #
-516 straight-curve $-1 287.34354104041347 965.47921484970857
-442.70012904621768 -5.6843418860808015e-14 -0.34842970191425593 0 F 0 F 1 #
-517 edge $550 $454 0 $497 1 $452 $551 forward 7 unknown #
-518 point $-1 287.34354104041347 965.47921484970857 -442.70012904621774 #
-519 rgb_color-st-attrib $-1 $-1 $-1 $457 0 0.75294131040573098
0.80000001192092896 #
-520 face $552 $-1 $539 $13 $-1 $553 forward single #
-521 plane-surface $-1 292.4479999152876 965.447568174916 -442.6033704583391
1.1477145967864797e-11 0.95045452676168374 0.31086362372947995 -1
-1.0303627905945173e-26 3.6920196162457591e-11 forward_v F 3.7200000007793403 F
5.2800000002171181 F -0.53586020754610209 F 0.013345714632778165 #
-522 coedge $-1 $460 $462 $477 $533 reversed $523 $-1 #
-523 loop $-1 $-1 $471 $489 #
-524 ptlist-eye-attrib $-1 $-1 $-1 $461 #
-525 straight-curve $-1 291.999999914407 965.60999999785099 -443.10000000086967
1.3053522707195953e-09 2.149249667127151e-09 -10.400000000749458 F 0 F 1 #
-526 ptlist-eye-attrib $-1 $-1 $-1 $463 #
-527 straight-curve $-1 290.49999991632887 965.61000000000024
-453.5000000016222 -9.9021235655527562e-10 -1.9980461729574017e-09
10.399999999808188 F 0 F 1 #
-528 point $-1 290.49999991533861 965.60999999800219 -443.10000000181407 #
-529 point $-1 290.49999991632887 965.61000000000024 -453.5000000016222 #
-530 ptlist-eye-attrib $-1 $-1 $-1 $472 #
-531 straight-curve $-1 290.49999991632887 965.61000000000024
-453.5000000016222 1.4999999993834763 0 3.0695446184836328e-12 F 0 F 1 #
-532 point $-1 291.99999991571235 965.61000000000024 -453.50000000161913 #
-533 edge $554 $397 0 $466 1 $522 $555 forward 7 unknown #
-534 ptlist-eye-attrib $-1 $-1 $-1 $486 #
-535 straight-curve $-1 290.64554104041349 965.47921484970857
-442.70012904633961 -0.14554112507488526 0.13078514829373944
-0.39987095547445506 F 0 F 1 #
-536 rgb_color-st-attrib $-1 $-1 $-1 $489 0 0.75294131040573098
0.80000001192092896 #
-537 plane-surface $-1 315 965.61000000000013 -450 0 1 0 -1 0 0 forward_v F
22.970000084955249 F 24.530000084006481 F -3.708000001641377 F
7.1079999994362248 #
-538 coedge $-1 $491 $493 $508 $549 reversed $539 $-1 #
-539 loop $-1 $-1 $502 $520 #
-540 ptlist-eye-attrib $-1 $-1 $-1 $492 #
-541 straight-curve $-1 288.69799991440698 965.60999999785099
-443.1000000007478 1.3053522707195953e-09 2.149249667127151e-09
-10.400000000749344 F 0 F 1 #
-542 ptlist-eye-attrib $-1 $-1 $-1 $494 #
-543 straight-curve $-1 287.19799991632885 965.61000000000024
-453.50000000150033 -9.9026919997413643e-10 -1.9980461729574017e-09
10.399999999808244 F 0 F 1 #
-544 point $-1 287.19799991533858 965.60999999800219 -443.10000000169214 #
-545 point $-1 287.19799991632885 965.61000000000024 -453.50000000150033 #
-546 ptlist-eye-attrib $-1 $-1 $-1 $503 #
-547 straight-curve $-1 287.19799991632885 965.61000000000024
-453.50000000150033 1.4999999993834194 0 3.1832314562052488e-12 F 0 F 1 #
-548 point $-1 288.69799991571233 965.61000000000024 -453.50000000149714 #
-549 edge $556 $441 0 $497 1 $538 $557 forward 7 unknown #
-550 ptlist-eye-attrib $-1 $-1 $-1 $517 #
-551 straight-curve $-1 287.34354104041347 965.47921484970857
-442.70012904621774 -0.14554112507482841 0.13078514829373944
-0.39987095547434137 F 0 F 1 #
-552 rgb_color-st-attrib $-1 $-1 $-1 $520 0 0.75294131040573098
0.80000001192092896 #
-553 plane-surface $-1 311.69799999999998 965.61000000000013
-449.99999999987807 0 1 0 -1 0 0 forward_v F 22.970000084955249 F
24.530000084006481 F -3.708000001641377 F 7.1079999994362248 #
-554 ptlist-eye-attrib $-1 $-1 $-1 $533 #
-555 straight-curve $-1 291.999999914407 965.60999999785099 -443.10000000086973
-1.4999999990683932 1.5120349416974932e-10 -9.4433971753460355e-10 F 0 F 1 #
-556 ptlist-eye-attrib $-1 $-1 $-1 $549 #
-557 straight-curve $-1 288.69799991440698 965.60999999785099
-443.10000000074774 -1.4999999990683932 1.5120349416974932e-10
-9.4439656095346436e-10 F 0 F 1 #
End-of-ACIS-data
